<svg width="24" height="24" viewBox="0 0 24 24" fill="none" xmlns="http://www.w3.org/2000/svg">
<path d="M21.6375 5.75623L12.5813 0.543726C12.4313 0.449976 12.225 0.412476 12 0.412476C11.775 0.412476 11.5688 0.468726 11.4188 0.543726L2.41875 5.77498C2.1 5.96248 1.875 6.43123 1.875 6.78748V17.2312C1.875 17.4375 1.9125 17.6812 2.0625 17.8875L22.0875 6.26248C21.975 6.03748 21.8063 5.86873 21.6375 5.75623V5.75623Z" fill="#E7E7E7"/>
<path d="M2.00586 17.8688C2.09961 18.0188 2.23086 18.15 2.36211 18.225L11.3996 23.4563C11.5496 23.55 11.7559 23.5875 11.9809 23.5875C12.2059 23.5875 12.4121 23.5313 12.5621 23.4563L21.5621 18.225C21.8809 18.0375 22.1059 17.5688 22.1059 17.2125V6.76877C22.1059 6.60002 22.0871 6.41252 21.9934 6.24377L2.00586 17.8688V17.8688Z" fill="#D8D8D8"/>
<path d="M15.9937 14.2687C15.2062 15.6562 13.7062 16.5938 12 16.5938C9.46875 16.5938 7.40625 14.5312 7.40625 12C7.40625 9.46875 9.46875 7.40625 12 7.40625C13.7062 7.40625 15.2062 8.34375 15.9937 9.75L18.4312 8.34375C17.1562 6.1125 14.7562 4.59375 12 4.59375C7.9125 4.59375 4.59375 7.9125 4.59375 12C4.59375 16.0875 7.9125 19.4062 12 19.4062C14.7375 19.4062 17.1375 17.9062 18.4125 15.6937L15.9937 14.2687V14.2687ZM18.1875 12.4125L18.3562 11.6063H17.5687V10.725H18.525L18.75 9.5625H19.6687L19.4437 10.7062H20.1562L20.3812 9.5625H21.2812L21.0562 10.7062H21.5062V11.5875H20.8875L20.7187 12.3937H21.5062V13.275H20.55L20.325 14.4H19.4062L19.6312 13.275H18.9187L18.6937 14.4H17.7937L18.0187 13.275H17.5687V12.3937H18.1875V12.4125ZM19.0875 12.4125H19.8L19.9687 11.6063H19.2562L19.0875 12.4125Z" fill="#272727"/>
</svg>
