<svg width="24" height="24" viewBox="0 0 24 24" fill="none" xmlns="http://www.w3.org/2000/svg">
<path d="M20.4528 5.98993C17.7026 3.93193 15.0677 3.98977 15.0677 3.98977L14.7984 4.29745C18.0679 5.27833 19.5874 6.72073 19.5874 6.72073C14.9095 4.14529 8.95128 4.16377 4.08576 6.72073C4.08576 6.72073 5.6628 5.20129 9.1248 4.22041L8.93256 3.98953C8.93256 3.98953 6.3168 3.93193 3.54744 5.98969C3.54744 5.98969 0.77784 10.9709 0.77784 17.1062C0.77784 17.1062 2.39352 19.8758 6.64392 20.0105C6.64392 20.0105 7.35552 19.1642 7.93248 18.4334C5.49 17.7026 4.56672 16.1832 4.56672 16.1832C6.10128 17.1434 7.65288 17.7444 9.58656 18.1258C12.7325 18.7733 16.6457 18.1075 19.5684 16.1832C19.5684 16.1832 18.6067 17.741 16.0872 18.4526C16.6642 19.1642 17.3566 19.9913 17.3566 19.9913C21.607 19.8566 23.2224 17.087 23.2224 17.1065C23.2222 10.9711 20.4528 5.98993 20.4528 5.98993ZM8.4132 15.3178C7.33608 15.3178 6.45144 14.3753 6.45144 13.2022C6.53016 10.3925 10.3159 10.4011 10.375 13.2022C10.375 14.3753 9.50928 15.3178 8.4132 15.3178ZM15.433 15.3178C14.3558 15.3178 13.4712 14.3753 13.4712 13.2022C13.5576 10.398 17.2961 10.3968 17.3947 13.2022C17.3947 14.3753 16.5293 15.3178 15.433 15.3178Z" fill="white"/>
</svg>
