<svg width="24" height="24" viewBox="0 0 24 24" fill="none" xmlns="http://www.w3.org/2000/svg">
<path d="M14.4379 10.3126C14.4848 10.4063 14.3911 10.4063 14.3442 10.4063L12.7504 10.8282C12.6098 10.9219 12.5161 10.7813 12.5161 10.7813C11.5317 9.56255 9.46918 10.4063 9.37543 12.1876C9.28168 13.8751 11.4848 14.5313 12.5161 12.8438H10.7348C10.5942 12.8438 10.3598 12.7969 10.5942 12.3751L10.9692 11.5782C11.0629 11.3907 11.1098 11.3907 11.3911 11.3907H14.6723C14.6723 15.1876 10.4536 16.8751 8.20355 14.5782C7.1723 13.5001 6.84418 11.0626 8.95355 9.32817C10.6411 7.9688 13.4536 7.9688 14.4379 10.3126ZM15.1879 14.8126C13.0786 12.9844 14.2036 9.18755 17.5317 8.57817C20.9536 7.9688 22.4536 11.1563 21.0942 13.5469C19.9692 15.5626 16.9692 16.4063 15.1879 14.8126ZM19.5942 12.4219C20.0161 11.2501 19.1723 10.1251 17.9067 10.2188C16.5004 10.3594 15.5161 12.1876 16.4067 13.2657C17.2973 14.2969 19.1254 13.8282 19.5942 12.4219ZM4.5473 12.3282V12.2813L4.64105 12.0469L4.7348 12.0001H6.65668L6.70355 12.0469L6.65668 12.2813L6.6098 12.3282H4.5473ZM2.2973 11.4844C2.2973 11.4844 2.20355 11.4844 2.25043 11.4376L2.43793 11.1563L2.53168 11.1094H6.84418L6.89105 11.1563L6.7973 11.3907L6.75043 11.4376L2.2973 11.4844ZM3.70355 10.5938L3.65668 10.5469L3.89105 10.3126L3.9848 10.2657H7.3598V10.3126L7.21918 10.5469L7.12543 10.5938H3.70355Z" fill="white"/>
</svg>
