<svg width="24" height="24" viewBox="0 0 24 24" fill="none" xmlns="http://www.w3.org/2000/svg">
<g clip-path="url(#clip0_418_22)">
<path d="M22.1126 5H1.8874C1.3973 5 1 5.3973 1 5.8874V18.6067C1 19.0968 1.3973 19.4941 1.8874 19.4941H22.1126C22.6027 19.4941 23 19.0968 23 18.6067V5.8874C23 5.3973 22.6027 5 22.1126 5Z" fill="#2F80ED"/>
<path d="M17.941 15.6619H17.941C17.4882 15.6619 17.121 16.029 17.121 16.4819V16.4819C17.121 16.9347 17.4882 17.3019 17.941 17.3019H17.941C18.3939 17.3019 18.7611 16.9347 18.7611 16.4819V16.4819C18.7611 16.029 18.3939 15.6619 17.941 15.6619Z" fill="white"/>
<path d="M20.4756 17.7865C20.4756 17.313 20.0918 16.9292 19.6183 16.9292C19.1449 16.9292 18.761 17.313 18.761 17.7865C18.761 18.2599 19.1449 18.6437 19.6183 18.6437C20.0918 18.6437 20.4756 18.2599 20.4756 17.7865Z" fill="white"/>
<path d="M20.9229 15.1026C20.9229 14.5057 20.4389 14.0217 19.842 14.0217C19.245 14.0217 18.761 14.5057 18.761 15.1026C18.761 15.6996 19.245 16.1836 19.842 16.1836C20.4389 16.1836 20.9229 15.6996 20.9229 15.1026Z" fill="white"/>
<path d="M3.17676 6.66724L3.25071 6.8706C3.1914 6.89448 3.15134 6.93646 3.13054 6.99654C3.10974 7.05663 3.09935 7.12595 3.09935 7.20452V7.43909C3.09935 7.51688 3.08124 7.58775 3.04504 7.65169C3.00961 7.71485 2.95337 7.76531 2.87634 7.80305C2.79931 7.84003 2.69879 7.85852 2.57477 7.85852V7.66671C2.64102 7.66671 2.68839 7.6463 2.71689 7.60547C2.74616 7.56388 2.7608 7.50841 2.7608 7.43909V7.20452C2.7608 7.12364 2.77312 7.04815 2.79777 6.97805C2.82319 6.90718 2.86633 6.84517 2.92718 6.79203C2.98804 6.7381 3.07123 6.69651 3.17676 6.66724ZM3.25071 8.72397L3.17676 8.92847C3.07123 8.89845 2.98804 8.85645 2.92718 8.80254C2.86633 8.74937 2.82319 8.68737 2.79777 8.6165C2.77312 8.5464 2.7608 8.47091 2.7608 8.39003V8.15547C2.7608 8.10925 2.75425 8.06919 2.74115 8.0353C2.72883 8.00141 2.7088 7.97522 2.68107 7.95673C2.65411 7.93824 2.61868 7.929 2.57477 7.929V7.73604C2.69879 7.73604 2.79931 7.75491 2.87634 7.79265C2.95337 7.82963 3.00961 7.8797 3.04504 7.94287C3.08124 8.00603 3.09935 8.0769 3.09935 8.15547V8.39003C3.09935 8.44241 3.10358 8.49094 3.11205 8.53562C3.1213 8.58029 3.13671 8.61881 3.15827 8.65116C3.18061 8.68352 3.21142 8.70777 3.25071 8.72397Z" fill="white" fill-opacity="0.13"/>
<path d="M5.02613 7.61357V8.30454C4.99762 8.33612 4.9537 8.37002 4.89439 8.40622C4.83586 8.44165 4.76191 8.47208 4.67255 8.49751C4.58319 8.52292 4.47804 8.53563 4.35711 8.53563C4.24541 8.53563 4.14412 8.51792 4.05322 8.48248C3.96232 8.44628 3.88414 8.39351 3.81866 8.32418C3.75396 8.25408 3.70389 8.16858 3.66845 8.06767C3.63379 7.96599 3.61646 7.84967 3.61646 7.71872V7.62513C3.61646 7.49418 3.63417 7.37786 3.66961 7.27618C3.70504 7.1745 3.75473 7.08899 3.81866 7.01967C3.88337 6.94957 3.95924 6.89642 4.04629 6.86021C4.1341 6.82401 4.23039 6.80591 4.33515 6.80591C4.48998 6.80591 4.61593 6.83056 4.71299 6.87986C4.81005 6.92838 4.88363 6.99579 4.93369 7.08206C4.98376 7.16757 5.01419 7.26655 5.02495 7.37902H4.63557C4.62787 7.32356 4.61324 7.27656 4.59166 7.23805C4.57087 7.19877 4.54082 7.16911 4.50154 7.14908C4.46225 7.12828 4.41141 7.11788 4.34902 7.11788C4.30049 7.11788 4.2562 7.12828 4.21614 7.14908C4.17686 7.16988 4.14335 7.20146 4.11561 7.24383C4.08788 7.28542 4.06632 7.33781 4.05091 7.40097C4.03627 7.46413 4.02896 7.53808 4.02896 7.62282V7.71872C4.02896 7.80269 4.03589 7.87625 4.04975 7.93941C4.06439 8.00258 4.08596 8.05535 4.11446 8.09771C4.14373 8.13931 4.18071 8.17089 4.22539 8.19246C4.27083 8.21326 4.32437 8.22366 4.38599 8.22366C4.42913 8.22366 4.46611 8.22019 4.49692 8.21326C4.52773 8.20556 4.55315 8.19631 4.57318 8.18553C4.59398 8.17398 4.60977 8.16319 4.62055 8.15317V7.89204H4.33862V7.61357H5.02613ZM6.30239 6.83017V8.51252H5.89685V6.83017H6.30239ZM6.8085 6.83017V7.1433H5.40227V6.83017H6.8085ZM7.75198 8.51252H7.37876L7.38109 8.20055H7.75198C7.82904 8.20055 7.89412 8.18206 7.94725 8.14509C8.00119 8.10811 8.04201 8.05303 8.06975 7.97986C8.09825 7.90591 8.11249 7.81501 8.11249 7.70717V7.63437C8.11249 7.55349 8.10439 7.48262 8.08823 7.42177C8.07281 7.36014 8.04971 7.30892 8.01891 7.26809C7.98811 7.2265 7.94958 7.1953 7.90336 7.1745C7.85792 7.1537 7.80552 7.1433 7.74622 7.1433H7.37185V6.83017H7.74622C7.86021 6.83017 7.96459 6.84981 8.05936 6.8891C8.15486 6.92761 8.23728 6.98308 8.30661 7.05549C8.37671 7.12712 8.43062 7.21224 8.46837 7.31084C8.5069 7.40867 8.52616 7.51728 8.52616 7.63668V7.70717C8.52616 7.8258 8.5069 7.93441 8.46837 8.03301C8.43062 8.13161 8.37708 8.21673 8.30775 8.28836C8.23842 8.36 8.15641 8.41547 8.06165 8.45475C7.96769 8.49327 7.86446 8.51252 7.75198 8.51252ZM7.61104 6.83017V8.51252H7.20546V6.83017H7.61104Z" fill="white"/>
<path d="M8.88153 6.8706L8.95548 6.66724C9.06178 6.69651 9.14497 6.7381 9.20506 6.79203C9.26592 6.84517 9.30866 6.90718 9.33332 6.97805C9.35872 7.04815 9.37144 7.12364 9.37144 7.20452V7.43909C9.37144 7.4853 9.37761 7.52536 9.38993 7.55925C9.40302 7.59314 9.42343 7.61972 9.45116 7.63898C9.47889 7.65747 9.51472 7.66671 9.55864 7.66671V7.85736C9.43459 7.85736 9.33369 7.83887 9.2559 7.8019C9.17888 7.76492 9.12223 7.71485 9.08604 7.65169C9.05061 7.58775 9.0329 7.51688 9.0329 7.43909V7.20452C9.0329 7.15214 9.02865 7.10361 9.02018 7.05894C9.01172 7.01426 8.9963 6.97574 8.97397 6.94339C8.95241 6.91027 8.92157 6.886 8.88153 6.8706ZM8.95548 8.92847L8.88153 8.72397C8.92157 8.70777 8.95241 8.68352 8.97397 8.65116C8.9963 8.61881 9.01172 8.58029 9.02018 8.53562C9.02865 8.49094 9.0329 8.44241 9.0329 8.39003V8.15547C9.0329 8.0769 9.05061 8.00603 9.08604 7.94287C9.12223 7.8797 9.17888 7.82963 9.2559 7.79265C9.33369 7.75568 9.43459 7.73719 9.55864 7.73719V7.929C9.49238 7.929 9.44461 7.9498 9.41537 7.99139C9.38608 8.03222 9.37144 8.08691 9.37144 8.15547V8.39003C9.37144 8.47091 9.35872 8.5464 9.33332 8.6165C9.30866 8.68737 9.26592 8.74937 9.20506 8.80254C9.14497 8.85645 9.06178 8.89845 8.95548 8.92847Z" fill="white" fill-opacity="0.12"/>
</g>
<defs>
<clipPath id="clip0_418_22">
<rect width="22" height="14.4941" fill="white" transform="translate(1 5)"/>
</clipPath>
</defs>
</svg>
