<svg width="24" height="24" viewBox="0 0 24 24" fill="none" xmlns="http://www.w3.org/2000/svg">
<g clip-path="url(#clip0_415_59)">
<path d="M21.1933 5H2.80672C2.36118 5 2 5.36118 2 5.80672V17.3697C2 17.8153 2.36118 18.1765 2.80672 18.1765H21.1933C21.6388 18.1765 22 17.8153 22 17.3697V5.80672C22 5.36118 21.6388 5 21.1933 5Z" fill="#202020"/>
<path d="M10.6919 11.2191L9.38542 10.7764C9.33087 10.7579 9.29413 10.7067 9.29413 10.6491V10.2423C9.29413 10.1467 9.39104 10.0816 9.47951 10.1178L11.2337 10.8354C11.2842 10.8561 11.3172 10.9053 11.3172 10.9599V11.2183C11.3172 11.3075 11.232 11.3719 11.1461 11.3476L10.6919 11.2191ZM9.29413 11.7009C9.29413 11.6437 9.3304 11.5927 9.38451 11.5739L10.6919 11.1202L11.1488 11.0009C11.234 10.9787 11.3172 11.043 11.3172 11.131V11.3909C11.3172 11.4455 11.2842 11.4947 11.2337 11.5153L9.47951 12.2329C9.39104 12.2691 9.29413 12.2041 9.29413 12.1085V11.7009Z" fill="white"/>
<path d="M14.5714 12.5778C14.6457 12.5778 14.7059 12.638 14.7059 12.7122V13.0203C14.7059 13.0946 14.6457 13.1548 14.5714 13.1548H12.7621C12.6878 13.1548 12.6276 13.0946 12.6276 13.0203V12.7122C12.6276 12.638 12.6878 12.5778 12.7621 12.5778H14.5714Z" fill="white"/>
<path d="M3.7707 6.23868C3.84496 6.23868 3.90516 6.29888 3.90516 6.37313V6.52777C3.90516 6.56105 3.89309 6.59377 3.86585 6.61289C3.85807 6.61835 3.84952 6.62393 3.84019 6.62962C3.81132 6.6471 3.77485 6.6621 3.73078 6.67464C3.6867 6.68718 3.63485 6.69344 3.5752 6.69344C3.52011 6.69344 3.47015 6.68471 3.42532 6.66723C3.38049 6.64937 3.34192 6.62335 3.30963 6.58916C3.27772 6.55458 3.25302 6.51241 3.23555 6.46264C3.21845 6.41249 3.2099 6.35513 3.2099 6.29054V6.24438C3.2099 6.17979 3.21864 6.12242 3.23612 6.07227C3.25359 6.02212 3.2781 5.97995 3.30963 5.94576C3.34154 5.91119 3.37897 5.88497 3.4219 5.86712C3.46521 5.84926 3.5127 5.84033 3.56437 5.84033C3.64073 5.84033 3.70285 5.85249 3.75072 5.87681C3.79859 5.90074 3.83487 5.93398 3.85957 5.97653C3.86745 5.98999 3.87435 6.00413 3.88025 6.01894C3.90155 6.07234 3.85485 6.12299 3.79737 6.12299H3.78578C3.74379 6.12299 3.7114 6.0901 3.69088 6.05347C3.68062 6.03409 3.66581 6.01946 3.64643 6.00959C3.62706 5.99933 3.60198 5.9942 3.57121 5.9942C3.54727 5.9942 3.52543 5.99933 3.50567 6.00959C3.48629 6.01984 3.46977 6.03542 3.45609 6.05632C3.44241 6.07683 3.43178 6.10267 3.42418 6.13382C3.41696 6.16497 3.41335 6.20145 3.41335 6.24324V6.29054C3.41335 6.33195 3.41677 6.36823 3.42361 6.39939C3.43082 6.43054 3.44146 6.45656 3.45552 6.47746C3.46996 6.49798 3.48819 6.51355 3.51023 6.52419C3.53265 6.53445 3.55905 6.53958 3.58944 6.53958C3.61072 6.53958 3.62896 6.53787 3.64415 6.53445C3.65935 6.53065 3.67189 6.52609 3.68177 6.52077C3.69757 6.51199 3.70513 6.49454 3.70513 6.47646V6.44555C3.70513 6.40715 3.67357 6.37602 3.63517 6.37602C3.59725 6.37602 3.56608 6.34528 3.56608 6.30735C3.56608 6.26942 3.59683 6.23868 3.63475 6.23868H3.7707Z" fill="white"/>
<path d="M4.32378 5.85229C4.37902 5.85229 4.4238 5.89707 4.4238 5.95231V6.58203C4.4238 6.63727 4.37902 6.68205 4.32378 6.68205C4.26854 6.68205 4.22377 6.63727 4.22377 6.58203V5.95231C4.22377 5.89707 4.26854 5.85229 4.32378 5.85229ZM4.59618 5.85229C4.63883 5.85229 4.6734 5.88687 4.6734 5.92952C4.6734 5.97216 4.63883 6.00674 4.59618 6.00674H4.05708C4.01443 6.00674 3.97986 5.97216 3.97986 5.92952C3.97986 5.88687 4.01443 5.85229 4.05708 5.85229H4.59618Z" fill="white"/>
<path d="M5.02786 6.68205H4.92129C4.87858 6.68205 4.84404 6.64725 4.84436 6.60454C4.84467 6.56227 4.87902 6.52818 4.92129 6.52818H5.02786C5.06585 6.52818 5.09795 6.51906 5.12417 6.50082C5.15076 6.48259 5.1709 6.45542 5.18457 6.41933C5.19863 6.38286 5.20566 6.33803 5.20566 6.28484V6.24893C5.20566 6.20904 5.20167 6.17409 5.19369 6.14408C5.18609 6.11368 5.1747 6.08842 5.1595 6.06828C5.1443 6.04777 5.12531 6.03238 5.10251 6.02212C5.0801 6.01186 5.05426 6.00674 5.02501 6.00674H4.91758C4.87494 6.00674 4.84036 5.97216 4.84036 5.92952C4.84036 5.88687 4.87494 5.85229 4.91758 5.85229H5.02501C5.08124 5.85229 5.13271 5.86199 5.17944 5.88136C5.22656 5.90036 5.26721 5.92771 5.3014 5.96342C5.33597 5.99876 5.36256 6.04074 5.38118 6.08937C5.40018 6.13762 5.40969 6.19119 5.40969 6.25007V6.28484C5.40969 6.34334 5.40018 6.39691 5.38118 6.44554C5.36256 6.49417 5.33616 6.53615 5.30197 6.57149C5.26778 6.60682 5.22732 6.63417 5.18059 6.65355C5.13423 6.67255 5.08333 6.68205 5.02786 6.68205ZM4.85832 5.85229C4.91355 5.85229 4.95833 5.89707 4.95833 5.95231V6.58203C4.95833 6.63727 4.91355 6.68205 4.85832 6.68205C4.80308 6.68205 4.7583 6.63727 4.7583 6.58203V5.95231C4.7583 5.89707 4.80308 5.85229 4.85832 5.85229Z" fill="white"/>
<path d="M5.61401 5.85229C5.66924 5.85229 5.71401 5.89707 5.71401 5.95231V6.58203C5.71401 6.63727 5.66924 6.68205 5.61401 6.68205C5.55875 6.68205 5.51398 6.63727 5.51398 6.58203V5.95231C5.51398 5.89707 5.55875 5.85229 5.61401 5.85229ZM5.95962 6.19765C6.00211 6.19765 6.03657 6.23209 6.03657 6.27458C6.03657 6.31707 6.00211 6.35151 5.95962 6.35151H5.73394C5.69146 6.35151 5.65704 6.31707 5.65704 6.27458C5.65704 6.23209 5.69146 6.19765 5.73394 6.19765H5.95962ZM5.99183 5.85229C6.03448 5.85229 6.06904 5.88687 6.06904 5.92952C6.06904 5.97216 6.03448 6.00674 5.99183 6.00674H5.73425C5.69159 6.00674 5.65704 5.97216 5.65704 5.92952C5.65704 5.88687 5.69159 5.85229 5.73425 5.85229H5.99183Z" fill="white"/>
<path d="M6.44373 6.25012C6.48481 6.25012 6.51808 6.28342 6.51808 6.32449C6.51808 6.36556 6.48481 6.39886 6.44373 6.39886H6.24995C6.20888 6.39886 6.1756 6.36556 6.1756 6.32449C6.1756 6.28342 6.20888 6.25012 6.24995 6.25012H6.44373Z" fill="white"/>
<path d="M7.1313 6.47803C7.15319 6.43938 7.18498 6.4011 7.22939 6.4011H7.24576C7.30199 6.4011 7.34885 6.44937 7.32868 6.50186C7.32166 6.52013 7.31285 6.53745 7.30226 6.55382C7.27376 6.5979 7.23426 6.63228 7.18371 6.65697C7.13359 6.68129 7.07429 6.69344 7.00593 6.69344C6.95046 6.69344 6.90088 6.68414 6.85719 6.66552C6.81386 6.64691 6.77702 6.62012 6.74663 6.58517C6.71662 6.55021 6.69362 6.50785 6.67766 6.45808C6.6621 6.40832 6.6543 6.35227 6.6543 6.28997V6.24495C6.6543 6.18264 6.66247 6.1266 6.6788 6.07683C6.69554 6.02668 6.71907 5.98413 6.74949 5.94918C6.78025 5.91385 6.81709 5.88687 6.86004 5.86825C6.90297 5.84964 6.95063 5.84033 7.00307 5.84033C7.07527 5.84033 7.13624 5.85325 7.18599 5.87908C7.23577 5.90492 7.27433 5.94044 7.30169 5.98565C7.31157 6.00184 7.31997 6.01885 7.32693 6.03668C7.3475 6.0894 7.30149 6.13895 7.24488 6.13895H7.23093C7.18629 6.13895 7.15379 6.10123 7.1347 6.06088C7.12485 6.0396 7.10925 6.02364 7.08798 6.01301C7.0667 6.00237 7.0384 5.99705 7.00307 5.99705C6.97836 5.99705 6.95692 6.00161 6.93867 6.01073C6.92045 6.01984 6.90525 6.03428 6.89309 6.05404C6.88092 6.07379 6.87181 6.09944 6.86572 6.13097C6.86004 6.16213 6.85719 6.19974 6.85719 6.24381V6.28997C6.85719 6.33404 6.85984 6.37165 6.86515 6.40281C6.87046 6.43396 6.87904 6.45941 6.8908 6.47917C6.90257 6.49893 6.91779 6.51355 6.93638 6.52305C6.9554 6.53217 6.97856 6.53673 7.00593 6.53673C7.03631 6.53673 7.06196 6.53198 7.08287 6.52248C7.10374 6.5126 7.11991 6.49779 7.1313 6.47803Z" fill="white"/>
<path d="M7.91484 6.52818C7.95732 6.52818 7.99178 6.56262 7.99178 6.60511C7.99178 6.6476 7.95732 6.68205 7.91484 6.68205H7.64929C7.6068 6.68205 7.57235 6.6476 7.57235 6.60511C7.57235 6.56262 7.6068 6.52818 7.64929 6.52818H7.91484ZM7.54358 5.85229C7.5988 5.85229 7.64358 5.89707 7.64358 5.95231V6.58203C7.64358 6.63727 7.5988 6.68205 7.54358 6.68205C7.48835 6.68205 7.44354 6.63727 7.44354 6.58203V5.95231C7.44354 5.89707 7.48835 5.85229 7.54358 5.85229Z" fill="white"/>
<path d="M8.18896 5.85229C8.24406 5.85229 8.2887 5.89695 8.2887 5.95203V6.58232C8.2887 6.63739 8.24406 6.68205 8.18896 6.68205C8.13391 6.68205 8.08923 6.63739 8.08923 6.58232V5.95203C8.08923 5.89695 8.13391 5.85229 8.18896 5.85229Z" fill="white"/>
<path d="M2.70587 6.91553C2.70587 6.89941 2.71893 6.88635 2.73505 6.88635H8.79434C8.81045 6.88635 8.82352 6.89941 8.82352 6.91553V6.93498C8.82352 6.9511 8.81045 6.96416 8.79434 6.96416H2.73505C2.71893 6.96416 2.70587 6.9511 2.70587 6.93498V6.91553Z" fill="white"/>
<path d="M17.9664 6.19333C17.9664 5.92415 17.7482 5.70593 17.479 5.70593C17.2098 5.70593 16.9916 5.92415 16.9916 6.19333C16.9916 6.46251 17.2098 6.68072 17.479 6.68072C17.7482 6.68072 17.9664 6.46251 17.9664 6.19333Z" fill="#EB5757"/>
<path d="M19.4117 6.19333C19.4117 5.92415 19.1935 5.70593 18.9243 5.70593C18.6552 5.70593 18.437 5.92415 18.437 6.19333C18.437 6.46251 18.6552 6.68072 18.9243 6.68072C19.1935 6.68072 19.4117 6.46251 19.4117 6.19333Z" fill="#F2994A"/>
<path d="M20.8571 6.19333C20.8571 5.92415 20.6389 5.70593 20.3697 5.70593C20.1005 5.70593 19.8823 5.92415 19.8823 6.19333C19.8823 6.46251 20.1005 6.68072 20.3697 6.68072C20.6389 6.68072 20.8571 6.46251 20.8571 6.19333Z" fill="#27AE60"/>
</g>
<defs>
<clipPath id="clip0_415_59">
<rect width="20" height="13.1765" fill="white" transform="translate(2 5)"/>
</clipPath>
</defs>
</svg>
