<svg width="38" height="50" viewBox="0 0 38 50" fill="none" xmlns="http://www.w3.org/2000/svg">
<g filter="url(#filter0_d_1069_61)">
<rect x="6.63086" y="5.35767" width="24.3196" height="22.0982" fill="white"/>
<rect x="4" y="3.34888" width="28.2633" height="3.34821" rx="1" fill="#202020"/>
<rect x="4" y="26.786" width="28.2633" height="3.34821" rx="1" fill="#202020"/>
<rect x="4" y="3.34888" width="3.28643" height="26.7857" rx="1" fill="#202020"/>
<rect x="30.292" y="3.34888" width="3.28643" height="26.7857" rx="1" fill="#202020"/>
<rect x="10.5732" width="3.28643" height="5.35713" rx="1" fill="#202020"/>
<rect x="23.7178" width="3.28643" height="6.02678" rx="1" fill="#202020"/>
<rect x="12.873" y="10.0447" width="3.28643" height="7.36607" rx="1" fill="#202020"/>
<rect x="21.7471" y="10.0447" width="3.28643" height="7.36607" rx="1" fill="#202020"/>
<rect x="13.4639" y="11.2256" width="1.18311" height="1.77258" rx="0.591557" fill="white"/>
<rect x="22.3398" y="11.2256" width="1.18311" height="1.77258" rx="0.591557" fill="white"/>
<rect x="15.833" y="33.1273" width="11.8311" height="2.95778" rx="1.47889" fill="#202020"/>
<rect x="21.7471" y="39.0421" width="5.91557" height="2.95778" rx="1.47889" fill="#202020"/>
</g>
<defs>
<filter id="filter0_d_1069_61" x="0" y="0" width="37.5781" height="49.9999" filterUnits="userSpaceOnUse" color-interpolation-filters="sRGB">
<feFlood flood-opacity="0" result="BackgroundImageFix"/>
<feColorMatrix in="SourceAlpha" type="matrix" values="0 0 0 0 0 0 0 0 0 0 0 0 0 0 0 0 0 0 127 0" result="hardAlpha"/>
<feOffset dy="4"/>
<feGaussianBlur stdDeviation="2"/>
<feComposite in2="hardAlpha" operator="out"/>
<feColorMatrix type="matrix" values="0 0 0 0 0 0 0 0 0 0 0 0 0 0 0 0 0 0 0.25 0"/>
<feBlend mode="normal" in2="BackgroundImageFix" result="effect1_dropShadow_1069_61"/>
<feBlend mode="normal" in="SourceGraphic" in2="effect1_dropShadow_1069_61" result="shape"/>
</filter>
</defs>
</svg>
