<svg width="24" height="24" viewBox="0 0 24 24" fill="none" xmlns="http://www.w3.org/2000/svg">
<path d="M8.92775 18.3975C8.92775 18.3975 8.03394 18.9176 9.56469 19.0931C11.4194 19.305 12.3673 19.2746 14.4106 18.8884C14.4106 18.8884 14.9489 19.225 15.6993 19.5167C11.117 21.4798 5.32907 19.4029 8.92775 18.3975ZM8.36751 15.8353C8.36751 15.8353 7.36475 16.5776 8.89682 16.7363C10.8781 16.9408 12.4424 16.9575 15.1507 16.4363C15.1507 16.4363 15.5244 16.816 16.1129 17.0233C10.5738 18.6433 4.40432 17.1508 8.36751 15.8353V15.8353Z" fill="white"/>
<path d="M13.088 11.4883C14.2177 12.7886 12.7917 13.9577 12.7917 13.9577C12.7917 13.9577 15.6584 12.4781 14.3422 10.6245C13.1123 8.89668 12.1696 8.0385 17.2737 5.07825C17.2737 5.07843 9.26166 7.07887 13.088 11.4883V11.4883Z" fill="#8D8D8D"/>
<path d="M19.148 20.2929C19.148 20.2929 19.8096 20.8386 18.419 21.2602C15.7748 22.0612 7.41158 22.3027 5.08883 21.2923C4.25427 20.9289 5.81989 20.4251 6.31246 20.3188C6.82602 20.2076 7.11927 20.2279 7.11927 20.2279C6.19058 19.5741 1.11683 21.5122 4.54246 22.0682C13.8839 23.5824 21.5706 21.3862 19.148 20.2929V20.2929ZM9.35839 13.1801C9.35839 13.1801 5.10477 14.1906 7.85221 14.5579C9.01246 14.7131 11.3243 14.6775 13.4793 14.4967C15.2399 14.3488 17.0067 14.0329 17.0067 14.0329C17.0067 14.0329 16.3865 14.2989 15.9372 14.6053C11.6168 15.7417 3.27271 15.2124 5.67514 14.0507C7.70614 13.0684 9.35839 13.1801 9.35839 13.1801V13.1801ZM16.9891 17.4452C21.3805 15.1639 19.3499 12.9714 17.9326 13.2667C17.5861 13.3389 17.4306 13.4017 17.4306 13.4017C17.4306 13.4017 17.5596 13.1994 17.8056 13.1124C20.6093 12.1271 22.7652 16.0192 16.9013 17.5609C16.9013 17.5605 16.9686 17.4996 16.9891 17.4452V17.4452Z" fill="white"/>
<path d="M14.342 0.297607C14.342 0.297607 16.7735 2.73061 12.0352 6.47067C8.23535 9.4718 11.1688 11.1825 12.0339 13.138C9.8156 11.1368 8.18847 9.37486 9.27991 7.73517C10.8827 5.3288 15.3228 4.16161 14.342 0.297607V0.297607Z" fill="#8D8D8D"/>
<path d="M9.79026 23.629C14.0045 23.8984 20.4778 23.479 20.6309 21.4847C20.6309 21.4847 20.3364 22.2407 17.1478 22.8406C13.5504 23.5178 9.11263 23.4389 6.48145 23.0044C6.48145 23.0046 7.02051 23.4509 9.79026 23.629V23.629Z" fill="white"/>
</svg>
