<svg width="24" height="24" viewBox="0 0 24 24" fill="none" xmlns="http://www.w3.org/2000/svg">
<path d="M0 0H24V24H0V0Z" />
<path d="M6.31064 20.0562L8.1472 18.9447C8.50158 19.5729 8.82389 20.1045 9.59705 20.1045C10.3381 20.1045 10.8055 19.8146 10.8055 18.687V11.0184H13.0608V18.7188C13.0608 21.0548 11.6915 22.1181 9.6937 22.1181C7.88948 22.1181 6.8422 21.1837 6.31055 20.056L6.31064 20.0562ZM14.2859 19.8145L16.1222 18.7513C16.6057 19.5407 17.234 20.1207 18.3455 20.1207C19.2801 20.1207 19.876 19.6534 19.876 19.009C19.876 18.2357 19.2638 17.9618 18.2327 17.5109L17.669 17.269C16.0418 16.5765 14.9625 15.7065 14.9625 13.8699C14.9625 12.1783 16.2512 10.8894 18.2651 10.8894C19.6989 10.8894 20.73 11.3889 21.471 12.6938L19.7148 13.8216C19.3281 13.1289 18.9094 12.8551 18.265 12.8551C17.6044 12.8551 17.1855 13.2739 17.1855 13.8216C17.1855 14.4982 17.6044 14.7722 18.571 15.1911L19.1348 15.4327C21.052 16.2544 22.1313 17.0921 22.1313 18.9768C22.1313 21.0069 20.5365 22.1184 18.3938 22.1184C16.2995 22.1184 14.9462 21.1196 14.2858 19.8146" fill="#272727"/>
</svg>
