<svg width="24" height="24" viewBox="0 0 24 24" fill="none" xmlns="http://www.w3.org/2000/svg">
<path d="M3.33575 10C2.59892 10 2.00013 10.6941 2.00013 11.55C2.00013 11.5607 2.00003 11.5708 2.00013 11.5813C2.00015 11.5834 2.00008 11.5854 2.00013 11.5875V13.4125C1.99984 13.4252 2.00013 13.4372 2.00013 13.45C2.00013 14.3059 2.59892 15 3.33575 15H4.27872H4.38878H5.61138H5.72144H6.66442C7.40126 15 8.00005 14.3059 8.00005 13.45C8.00005 12.594 7.40126 11.9 6.66442 11.9H6.12897H5.9148H4.85581V13H5.9148H6.12897H6.28663C6.49574 13 6.66442 13.1801 6.66442 13.4C6.66442 13.6199 6.49574 13.7968 6.28663 13.7968H5.9148H5.72144H5.61138H4.38878H4.27872H4.08537H3.71353C3.5084 13.7968 3.34198 13.6265 3.33575 13.4125V11.5875V11.5813C3.34504 11.3702 3.51042 11.2031 3.71353 11.2031H4.08537H4.27872H4.85581V11.2062H7.80669V10H5.61138H4.85581H4.27872H3.33575V10Z" fill="white"/>
<path d="M8.66748 10V11.2055H11.0811H11.9112H12.4045H12.5966H12.9658C13.1675 11.2055 13.3318 11.3724 13.341 11.5834V11.5896V13.4134C13.3348 13.6274 13.1696 13.7976 12.9658 13.7976H12.5966H12.4045H11.5567H11.0811H9.99096V11.9019H8.66748V13.7976V14.6189V15H11.0811H11.5567H12.4045H13.341C14.0728 15 14.6674 14.3064 14.6674 13.4509C14.6674 13.4381 14.6677 13.4262 14.6674 13.4134V11.5896C14.6675 11.5875 14.6674 11.5854 14.6674 11.5834C14.6675 11.573 14.6674 11.5628 14.6674 11.5522C14.6674 10.6967 14.0728 10.0031 13.341 10.0031H12.4045H11.9112V10H8.66748V10Z" fill="white"/>
<path d="M14.6663 10H16.5178L18.3333 11.9062L20.1488 10H22L19.6191 12.5L22 15H20.1488L18.3333 13.0937L16.5178 15H14.6666L17.0472 12.5L14.6663 10Z" fill="white"/>
</svg>
