<svg width="24" height="24" viewBox="0 0 24 24" fill="none" xmlns="http://www.w3.org/2000/svg">
<g clip-path="url(#clip0_1086_271)">
<path d="M21.538 5.00036C21.214 5.01078 21.3164 5.10412 20.6164 5.27637C19.9094 5.45034 19.0459 5.39694 18.2846 5.71626C16.0121 6.66938 15.5561 9.92678 13.4902 11.0936C11.946 11.9659 10.3879 12.0354 8.98722 12.4744C8.06667 12.7631 7.05968 13.355 6.22566 14.0738C5.57834 14.6318 5.56144 15.1226 4.885 15.8225C4.16155 16.5712 2.00952 15.8352 1.03418 16.981C1.34833 17.2987 1.48613 17.3877 2.10524 17.3053C1.97712 17.5482 1.22144 17.753 1.36933 18.1104C1.52501 18.4865 3.35182 18.7414 5.01254 17.7389C5.78594 17.2719 6.40201 16.5988 7.60644 16.4382C9.16512 16.2304 10.9608 16.5714 12.7652 16.8317C12.4976 17.6294 11.9605 18.16 11.5302 18.7953C11.3969 18.9389 11.7978 18.9549 12.2552 18.8682C13.0779 18.6648 13.6707 18.5009 14.2916 18.1395C15.0545 17.6955 15.1701 16.5571 16.106 16.3107C16.6274 17.1122 18.0458 17.3015 18.9258 16.6604C18.1535 16.4418 17.9401 14.7981 18.2008 14.0738C18.4477 13.3881 18.6917 12.2914 18.9404 11.3851C19.2074 10.4118 19.3058 9.18496 19.6289 8.68912C20.115 7.9432 20.6521 7.68704 21.1184 7.26643C21.5848 6.84573 22.0117 6.43635 21.9976 5.4738C21.9931 5.16375 21.8328 4.99101 21.538 5.00036V5.00036Z" fill="white"/>
<path d="M18.4277 6.88122C18.8011 7.20537 19.5847 6.9452 19.4447 6.30017C18.8644 6.2521 18.5283 6.44904 18.4277 6.88122ZM21.0312 6.12735C20.9319 6.33569 20.7417 6.60431 20.7417 7.13459C20.7409 7.22563 20.6725 7.28805 20.6714 7.14771C20.6766 6.62933 20.8137 6.40532 20.9595 6.11086C21.0272 5.99021 21.068 6.03999 21.0312 6.12735V6.12735Z" fill="black"/>
<path d="M20.9307 6.0489C20.8134 6.24764 20.5313 6.61026 20.4847 7.13858C20.476 7.22913 20.4024 7.28524 20.4135 7.14522C20.4644 6.62946 20.6899 6.30661 20.861 6.02601C20.9387 5.91192 20.9752 5.96507 20.9307 6.0489ZM20.8394 5.94489C20.706 6.13305 20.2716 6.56852 20.1808 7.09117C20.1645 7.18057 20.0864 7.23044 20.1094 7.09183C20.2034 6.58205 20.5778 6.18136 20.7718 5.91635C20.8588 5.80889 20.8906 5.86508 20.8394 5.94489V5.94489ZM20.7581 5.82891C20.5995 5.9964 20.0817 6.5517 19.9185 7.05631C19.8896 7.14252 19.8053 7.18098 19.8476 7.04696C20.0122 6.55547 20.4657 6.02601 20.6951 5.79101C20.7964 5.69693 20.82 5.75697 20.7581 5.82891Z" fill="black"/>
</g>
<defs>
<clipPath id="clip0_1086_271">
<rect width="21" height="13.944" fill="white" transform="translate(1 5)"/>
</clipPath>
</defs>
</svg>
