<svg width="24" height="24" viewBox="0 0 24 24" fill="none" xmlns="http://www.w3.org/2000/svg">
<g clip-path="url(#clip0_1086_220)">
<path d="M12.4654 9.13899H14.9174V11.646H16.1574C16.7304 11.646 17.3184 11.544 17.8614 11.36C18.1274 11.27 18.4264 11.144 18.6894 10.986C18.3434 10.534 18.1664 9.96399 18.1144 9.40099C18.0434 8.63599 18.1984 7.63999 18.7154 7.04099L18.9734 6.74299L19.2804 6.98998C20.0534 7.61098 20.7044 8.47899 20.8184 9.46899C21.7494 9.19499 22.8424 9.25999 23.6634 9.73399L24.0004 9.92799L23.8234 10.274C23.1294 11.629 21.6784 12.048 20.2594 11.974C18.1364 17.262 13.5144 19.765 7.91036 19.765C5.01536 19.765 2.35836 18.683 0.846356 16.114L0.821356 16.072L0.600356 15.624C0.0893559 14.493 -0.0806441 13.255 0.0343559 12.017L0.0693559 11.646H2.16636V9.13899H4.61836V6.68699H9.52236V4.23499H12.4654V9.13899Z" fill="#8E8E8E"/>
<path d="M20.4089 10.067C20.5729 8.78896 19.6169 7.78596 19.0239 7.30896C18.3409 8.09896 18.2339 10.17 19.3069 11.042C18.7089 11.573 17.4479 12.055 16.1569 12.055H0.441944C0.316944 13.403 0.552944 14.644 1.09294 15.706L1.27194 16.033C1.38494 16.225 1.50894 16.411 1.64194 16.589C2.28794 16.631 2.88394 16.645 3.42894 16.633C4.49994 16.609 5.37394 16.483 6.03594 16.253C6.13594 16.222 6.24094 16.278 6.27194 16.377C6.30194 16.472 6.25194 16.574 6.15894 16.609C6.07094 16.64 5.97894 16.668 5.88394 16.695C5.36294 16.844 4.80294 16.944 4.08194 16.989C4.12494 16.99 4.03694 16.995 4.03694 16.995C4.01194 16.997 3.98194 17 3.95694 17.001C3.67294 17.017 3.36694 17.02 3.05294 17.02C2.70994 17.02 2.37294 17.014 1.99494 16.994L1.98494 17C3.29394 18.472 5.34194 19.354 7.90794 19.354C13.3389 19.354 17.9459 16.946 19.9859 11.541C21.4329 11.69 22.8239 11.32 23.4569 10.085C22.4509 9.50596 21.1549 9.69096 20.4089 10.067Z" fill="#BDBDBD"/>
<path d="M20.4089 10.067C20.5729 8.78896 19.6169 7.78596 19.0239 7.30896C18.3409 8.09896 18.2339 10.17 19.3069 11.042C18.7089 11.573 17.4479 12.055 16.1569 12.055H1.37188C1.30788 14.119 2.07388 15.685 3.42888 16.633C4.49988 16.609 5.37388 16.483 6.03588 16.253C6.13588 16.222 6.24088 16.278 6.27188 16.377C6.30188 16.472 6.25188 16.574 6.15888 16.609C6.07088 16.64 5.97888 16.668 5.88388 16.695C5.36288 16.844 4.75488 16.957 4.03388 17.001C4.03388 17.001 4.01688 16.984 4.01588 16.984C5.86388 17.932 8.54488 17.929 11.6169 16.748C15.0619 15.424 18.2689 12.903 20.5059 10.018C20.4739 10.035 20.4409 10.051 20.4089 10.067Z" fill="#E8E8E8"/>
<path d="M0.470703 13.692C0.568703 14.414 0.779703 15.09 1.0927 15.705L1.2717 16.032C1.3847 16.224 1.5087 16.41 1.6417 16.588C2.2877 16.63 2.8837 16.644 3.4287 16.632C4.4997 16.608 5.3737 16.482 6.0357 16.252C6.1357 16.221 6.2407 16.277 6.2717 16.376C6.3017 16.471 6.2517 16.573 6.1587 16.608C6.0707 16.639 5.9787 16.667 5.8837 16.694C5.3627 16.843 4.7577 16.95 4.0367 16.994C4.0117 16.996 3.9687 16.996 3.9437 16.997C3.6597 17.013 3.3567 17.023 3.0427 17.023C2.6997 17.023 2.3497 17.016 1.9727 16.997C3.2817 18.469 5.3417 19.355 7.9087 19.355C12.5587 19.355 16.6037 17.59 18.9517 13.691H0.470703V13.692Z" fill="#CECECE"/>
<path d="M1.51367 13.6919C1.79167 14.9599 2.45967 15.9549 3.42967 16.6319C4.50067 16.6079 5.37467 16.4819 6.03667 16.2519C6.13667 16.2209 6.24167 16.2769 6.27267 16.3759C6.30267 16.4709 6.25267 16.5729 6.15967 16.6079C6.07167 16.6389 5.97967 16.6669 5.88467 16.6939C5.36367 16.8429 4.74667 16.9499 4.02467 16.9939C5.87267 17.9419 8.54567 17.9279 11.6177 16.7479C13.4767 16.0339 15.2657 14.9709 16.8707 13.6899H1.51367V13.6919Z" fill="#E7E7E7"/>
<path d="M2.5752 9.54795H4.7002V11.6729H2.5752V9.54795ZM2.7522 9.72495H2.9202V11.4959H2.7522V9.72495ZM3.0672 9.72495H3.2412V11.4959H3.0672V9.72495ZM3.3892 9.72495H3.5632V11.4959H3.3892V9.72495ZM3.7112 9.72495H3.8852V11.4959H3.7112V9.72495ZM4.0332 9.72495H4.2072V11.4959H4.0332V9.72495ZM4.3552 9.72495H4.5232V11.4959H4.3552V9.72495ZM5.0272 7.09595H7.15219V9.22095H5.0262L5.0272 7.09595ZM5.2042 7.27295H5.3722V9.04395H5.2042V7.27295ZM5.5192 7.27295H5.6932V9.04395H5.5192V7.27295ZM5.8412 7.27295H6.0152V9.04395H5.8412V7.27295ZM6.1632 7.27295H6.3372V9.04395H6.1632V7.27295ZM6.4852 7.27295H6.65919V9.04395H6.4852V7.27295ZM6.8072 7.27295H6.97519V9.04395H6.8072V7.27295Z" fill="#CACACA"/>
<path d="M5.02737 9.54797H7.15237V11.673H5.02637L5.02737 9.54797ZM5.20437 9.72497H5.37237V11.496H5.20437V9.72497ZM5.51937 9.72497H5.69337V11.496H5.51937V9.72497ZM5.84137 9.72497H6.01537V11.496H5.84137V9.72497ZM6.16337 9.72497H6.33737V11.496H6.16337V9.72497ZM6.48537 9.72497H6.65937V11.496H6.48537V9.72497ZM6.80737 9.72497H6.97537V11.496H6.80737V9.72497Z" fill="white"/>
<path d="M7.47852 9.54797H9.60352V11.673H7.47852V9.54797ZM7.65552 9.72497H7.82352V11.496H7.65552V9.72497ZM7.97052 9.72497H8.14452V11.496H7.97052V9.72497ZM8.29252 9.72497H8.46652V11.496H8.29252V9.72497ZM8.61452 9.72497H8.78852V11.496H8.61452V9.72497ZM8.93652 9.72497H9.11152V11.496H8.93652V9.72497ZM9.25852 9.72497H9.42652V11.496H9.25852V9.72497Z" fill="#CACACA"/>
<path d="M7.47852 7.09595H9.60352V9.22095H7.47852V7.09595ZM7.65552 7.27295H7.82352V9.04395H7.65552V7.27295ZM7.97052 7.27295H8.14452V9.04395H7.97052V7.27295ZM8.29252 7.27295H8.46652V9.04395H8.29252V7.27295ZM8.61452 7.27295H8.78852V9.04395H8.61452V7.27295ZM8.93652 7.27295H9.11152V9.04395H8.93652V7.27295ZM9.25852 7.27295H9.42652V9.04395H9.25852V7.27295ZM9.93052 9.54795H12.0555V11.6729H9.93052V9.54795ZM10.1075 9.72495H10.2755V11.4959H10.1075V9.72495ZM10.4225 9.72495H10.5965V11.4959H10.4225V9.72495ZM10.7445 9.72495H10.9185V11.4959H10.7445V9.72495ZM11.0665 9.72495H11.2405V11.4959H11.0665V9.72495ZM11.3885 9.72495H11.5625V11.4959H11.3885V9.72495ZM11.7105 9.72495H11.8785V11.4959H11.7105V9.72495Z" fill="white"/>
<path d="M9.93066 7.09595H12.0557V9.22095H9.93066V7.09595ZM10.1077 7.27295H10.2757V9.04395H10.1077V7.27295ZM10.4227 7.27295H10.5967V9.04395H10.4227V7.27295ZM10.7447 7.27295H10.9187V9.04395H10.7447V7.27295ZM11.0667 7.27295H11.2407V9.04395H11.0667V7.27295ZM11.3887 7.27295H11.5627V9.04395H11.3887V7.27295ZM11.7107 7.27295H11.8787V9.04395H11.7107V7.27295Z" fill="#CACACA"/>
<path d="M9.93066 4.64404H12.0557V6.76904H9.93066V4.64404ZM10.1077 4.82104H10.2757V6.59204H10.1077V4.82104ZM10.4227 4.82104H10.5967V6.59204H10.4227V4.82104ZM10.7447 4.82104H10.9187V6.59204H10.7447V4.82104ZM11.0667 4.82104H11.2407V6.59204H11.0667V4.82104ZM11.3887 4.82104H11.5627V6.59204H11.3887V4.82104ZM11.7107 4.82104H11.8787V6.59204H11.7107V4.82104Z" fill="white"/>
<path d="M12.3828 9.54797H14.5078V11.673H12.3828V9.54797ZM12.5598 9.72497H12.7278V11.496H12.5598V9.72497ZM12.8748 9.72497H13.0488V11.496H12.8748V9.72497ZM13.1968 9.72497H13.3708V11.496H13.1968V9.72497ZM13.5188 9.72497H13.6928V11.496H13.5188V9.72497ZM13.8408 9.72497H14.0148V11.496H13.8408V9.72497ZM14.1628 9.72497H14.3308V11.496H14.1628V9.72497Z" fill="#CACACA"/>
<path d="M7.01852 15.1189C7.34252 15.1149 7.60852 15.3739 7.61252 15.6979C7.61652 16.0219 7.35752 16.2879 7.03352 16.2919C7.02852 16.2919 7.02252 16.2919 7.01752 16.2919C6.69352 16.2879 6.43452 16.0219 6.43952 15.6979C6.44452 15.3789 6.70052 15.1229 7.01852 15.1189Z" fill="white"/>
<path d="M7.01882 15.285C7.07282 15.285 7.12382 15.295 7.17082 15.313C7.08882 15.361 7.06082 15.465 7.10882 15.547C7.13982 15.6 7.19582 15.632 7.25682 15.632C7.32182 15.632 7.37782 15.596 7.40682 15.543C7.49582 15.757 7.39382 16.003 7.17982 16.092C6.96582 16.181 6.71982 16.079 6.63082 15.865C6.54182 15.651 6.64382 15.405 6.85782 15.316C6.90882 15.296 6.96382 15.285 7.01882 15.285Z" fill="#8E8E8E"/>
<path d="M8.5772 19.3429C7.1252 18.6539 6.3282 17.7169 5.8852 16.6949C5.3462 16.8489 4.6972 16.9469 3.9442 16.9899C3.6602 17.0059 3.3622 17.0139 3.0492 17.0139C2.6882 17.0139 2.3072 17.0029 1.9082 16.9819C3.2402 18.3129 4.8782 19.3369 7.9112 19.3559C8.1342 19.3559 8.3562 19.3519 8.5772 19.3429Z" fill="#C1C1C1"/>
<path d="M6.42434 17.6389C6.22334 17.3659 6.02834 17.0239 5.88534 16.6949C5.34634 16.8489 4.69734 16.9479 3.94434 16.9899C4.46234 17.2709 5.20234 17.5309 6.42434 17.6389Z" fill="white"/>
</g>
<defs>
<clipPath id="clip0_1086_220">
<rect width="24" height="24" fill="white"/>
</clipPath>
</defs>
</svg>
