<svg width="24" height="24" viewBox="0 0 24 24" fill="none" xmlns="http://www.w3.org/2000/svg">
<path d="M11.5312 6.28125H13.5Z" fill="black"/>
<path d="M13.875 10.5938H15.8438M11.5312 10.5938H13.5M9.23438 10.5938H11.2031M6.9375 10.5938H8.85938M4.59375 10.5938H6.5625M6.9375 8.4375H8.85938M9.23438 8.4375H11.2031M11.5312 8.4375H13.5M11.5312 6.28125H13.5" stroke="white" stroke-width="2"/>
<path d="M22.1246 10.6875C22.1246 10.6875 21.2809 9.89062 19.5465 10.1719C19.359 8.8125 17.9059 8.01562 17.9059 8.01562C17.9059 8.01562 16.5465 9.65625 17.5309 11.4844C17.2496 11.625 16.7809 11.8125 16.0777 11.8125H3.18713C2.95275 12.7031 2.95275 18.6094 9.4215 18.6094C14.0621 18.6094 17.5309 16.4531 19.1715 12.5156C21.609 12.7031 22.1246 10.6875 22.1246 10.6875Z"/>
</svg>
