<svg width="24" height="24" viewBox="0 0 24 24" fill="none" xmlns="http://www.w3.org/2000/svg">
<path d="M9.20104 6.12369C6.50666 5.63244 4.37854 6.14619 3.52916 7.62369C2.89541 8.72057 3.07729 10.1756 3.96791 11.7299C3.98601 11.7615 4.01014 11.7891 4.03892 11.8113C4.0677 11.8335 4.10057 11.8498 4.13566 11.8593C4.17074 11.8688 4.20735 11.8713 4.24339 11.8666C4.27944 11.8619 4.31421 11.8502 4.34573 11.8321C4.37724 11.814 4.40489 11.7899 4.42708 11.7611C4.44927 11.7323 4.46558 11.6995 4.47507 11.6644C4.48456 11.6293 4.48704 11.5927 4.48238 11.5567C4.47772 11.5206 4.46601 11.4858 4.44791 11.4543C3.64541 10.0537 3.48791 8.79745 4.00729 7.89182C4.71229 6.67119 6.61166 6.20432 9.10166 6.66557C9.17377 6.67875 9.24816 6.66274 9.30846 6.62107C9.36877 6.57941 9.41005 6.51549 9.42323 6.44338C9.4364 6.37128 9.4204 6.29689 9.37873 6.23658C9.33706 6.17628 9.27314 6.135 9.20104 6.12182V6.12369ZM5.36854 13.6143C6.56992 14.9018 7.96097 15.9982 9.49354 16.8656C13.401 19.1156 17.556 19.7249 19.6185 18.3262C19.679 18.2849 19.7205 18.2213 19.734 18.1494C19.7476 18.0775 19.732 18.0032 19.6907 17.9428C19.6495 17.8823 19.5859 17.8408 19.514 17.8273C19.442 17.8137 19.3677 17.8293 19.3073 17.8706C17.4585 19.1249 13.5004 18.5474 9.76354 16.3856C8.28263 15.5462 6.93842 14.4859 5.77729 13.2412C5.72756 13.187 5.65834 13.1548 5.58485 13.1516C5.51135 13.1484 5.43962 13.1746 5.38541 13.2243C5.33121 13.274 5.29898 13.3433 5.29582 13.4168C5.29265 13.4903 5.31881 13.562 5.36854 13.6162V13.6143Z" fill="white"/>
<path d="M18.949 13.2769C20.7134 11.1937 21.3284 9.09749 20.4809 7.63124C19.8584 6.55124 18.5403 5.98124 16.789 5.95874C16.7157 5.95874 16.6453 5.98788 16.5935 6.03974C16.5416 6.09161 16.5125 6.16195 16.5125 6.2353C16.5125 6.30865 16.5416 6.379 16.5935 6.43086C16.6453 6.48273 16.7157 6.51187 16.789 6.51187C18.364 6.53249 19.4984 7.02374 20.0103 7.90874C20.7134 9.12749 20.164 10.9969 18.5347 12.9225C18.5113 12.9502 18.4936 12.9822 18.4826 13.0168C18.4715 13.0513 18.4674 13.0877 18.4705 13.1238C18.4735 13.1599 18.4837 13.1951 18.5003 13.2273C18.517 13.2595 18.5398 13.2882 18.5675 13.3116C18.5952 13.3349 18.6272 13.3527 18.6618 13.3637C18.6963 13.3747 18.7327 13.3788 18.7688 13.3757C18.8049 13.3727 18.8401 13.3625 18.8723 13.3459C18.9045 13.3293 18.9331 13.3064 18.9565 13.2787L18.949 13.2769ZM14.4172 6.21562C12.686 6.60849 11.0258 7.26623 9.49529 8.16562C5.46216 10.5 2.82966 13.9294 3.18779 16.4194C3.19848 16.494 3.23836 16.5612 3.29867 16.6064C3.35897 16.6516 3.43476 16.671 3.50935 16.6603C3.58394 16.6496 3.65123 16.6097 3.69642 16.5494C3.7416 16.4891 3.76098 16.4133 3.75029 16.3387C3.41841 14.1281 5.91216 10.875 9.77091 8.64562C11.2514 7.77243 12.8578 7.13302 14.5334 6.74999C14.5689 6.74236 14.6025 6.72782 14.6323 6.70719C14.6622 6.68657 14.6876 6.66028 14.7073 6.62981C14.727 6.59934 14.7405 6.56529 14.747 6.52961C14.7535 6.49394 14.7529 6.45732 14.7453 6.42187C14.7377 6.38641 14.7231 6.3528 14.7025 6.32297C14.6819 6.29313 14.6556 6.26765 14.6251 6.24797C14.5946 6.2283 14.5606 6.21482 14.5249 6.2083C14.4892 6.20178 14.4526 6.20236 14.4172 6.20999V6.21562Z" fill="white"/>
<path d="M7.87531 18.1462C8.81281 20.7206 10.3128 22.3125 12.0097 22.3125C13.2472 22.3125 14.3909 21.4687 15.2834 19.9837C15.3227 19.9213 15.3356 19.8459 15.3193 19.7739C15.3029 19.702 15.2587 19.6396 15.1963 19.6003C15.1338 19.561 15.0584 19.5481 14.9865 19.5645C14.9146 19.5808 14.8521 19.6251 14.8128 19.6875C14.0103 21.0225 13.0259 21.75 12.0116 21.75C10.6016 21.75 9.25719 20.3362 8.40406 17.955C8.3792 17.8861 8.32799 17.8299 8.26171 17.7988C8.19543 17.7677 8.1195 17.7642 8.05063 17.789C7.98175 17.8139 7.92558 17.8651 7.89446 17.9314C7.86334 17.9977 7.85982 18.0736 7.88469 18.1425L7.87531 18.1462ZM16.3128 17.6418C16.8116 15.9818 17.0587 14.2564 17.0459 12.5231C17.0459 7.94622 15.4447 4.00309 13.1628 2.98872C13.0957 2.95888 13.0194 2.95693 12.9509 2.98331C12.8823 3.00968 12.827 3.06221 12.7972 3.12934C12.7674 3.19648 12.7654 3.27271 12.7918 3.34128C12.8182 3.40985 12.8707 3.46513 12.9378 3.49497C14.9722 4.39872 16.5003 8.14122 16.5003 12.5231C16.5128 14.2005 16.2739 15.8703 15.7916 17.4768C15.7697 17.5467 15.7765 17.6224 15.8104 17.6873C15.8443 17.7522 15.9026 17.8009 15.9725 17.8228C16.0424 17.8447 16.1181 17.8379 16.1829 17.804C16.2478 17.77 16.2966 17.7117 16.3184 17.6418H16.3128ZM21.5084 17.3718C21.5084 17.1104 21.4309 16.8548 21.2857 16.6375C21.1404 16.4201 20.934 16.2506 20.6924 16.1506C20.4509 16.0505 20.1851 16.0244 19.9287 16.0754C19.6723 16.1264 19.4367 16.2523 19.2519 16.4371C19.067 16.622 18.9411 16.8575 18.8901 17.114C18.8391 17.3704 18.8653 17.6362 18.9653 17.8777C19.0654 18.1192 19.2348 18.3257 19.4522 18.4709C19.6696 18.6162 19.9251 18.6937 20.1866 18.6937C20.3602 18.6937 20.532 18.6595 20.6924 18.5931C20.8528 18.5267 20.9985 18.4293 21.1213 18.3066C21.244 18.1838 21.3414 18.0381 21.4078 17.8777C21.4742 17.7173 21.5084 17.5454 21.5084 17.3718V17.3718ZM20.9553 17.3718C20.9553 17.5239 20.9102 17.6725 20.8258 17.7989C20.7413 17.9254 20.6212 18.0239 20.4808 18.0821C20.3403 18.1403 20.1857 18.1555 20.0366 18.1258C19.8875 18.0962 19.7505 18.0229 19.643 17.9154C19.5355 17.8079 19.4622 17.6709 19.4326 17.5218C19.4029 17.3727 19.4181 17.2181 19.4763 17.0777C19.5345 16.9372 19.633 16.8171 19.7595 16.7327C19.8859 16.6482 20.0345 16.6031 20.1866 16.6031C20.3904 16.6031 20.586 16.6841 20.7302 16.8283C20.8743 16.9724 20.9553 17.168 20.9553 17.3718V17.3718ZM3.81406 18.6937C4.0755 18.6937 4.33108 18.6162 4.54846 18.4709C4.76584 18.3257 4.93527 18.1192 5.03532 17.8777C5.13537 17.6362 5.16154 17.3704 5.11054 17.114C5.05953 16.8575 4.93364 16.622 4.74877 16.4371C4.5639 16.2523 4.32837 16.1264 4.07195 16.0754C3.81553 16.0244 3.54974 16.0505 3.3082 16.1506C3.06666 16.2506 2.86021 16.4201 2.71496 16.6375C2.56971 16.8548 2.49219 17.1104 2.49219 17.3718C2.49219 17.7224 2.63146 18.0587 2.87936 18.3066C3.12726 18.5545 3.46348 18.6937 3.81406 18.6937V18.6937ZM3.81406 18.1406C3.66202 18.1406 3.51339 18.0955 3.38697 18.011C3.26055 17.9266 3.16201 17.8065 3.10383 17.666C3.04565 17.5256 3.03042 17.371 3.06008 17.2219C3.08975 17.0727 3.16296 16.9358 3.27047 16.8283C3.37799 16.7207 3.51496 16.6475 3.66409 16.6179C3.81321 16.5882 3.96778 16.6034 4.10825 16.6616C4.24872 16.7198 4.36878 16.8183 4.45325 16.9448C4.53773 17.0712 4.58281 17.2198 4.58281 17.3718C4.58281 17.5757 4.50182 17.7713 4.35765 17.9154C4.21348 18.0596 4.01795 18.1406 3.81406 18.1406V18.1406Z" fill="white"/>
<path d="M12.0094 4.33687C12.2708 4.33687 12.5264 4.25934 12.7438 4.11409C12.9611 3.96884 13.1306 3.76239 13.2306 3.52085C13.3307 3.27931 13.3569 3.01352 13.3059 2.75711C13.2548 2.50069 13.1289 2.26515 12.9441 2.08028C12.7592 1.89542 12.5237 1.76952 12.2673 1.71852C12.0108 1.66751 11.7451 1.69369 11.5035 1.79374C11.262 1.89379 11.0555 2.06322 10.9103 2.2806C10.765 2.49798 10.6875 2.75355 10.6875 3.01499C10.6875 3.36557 10.8268 3.7018 11.0747 3.9497C11.3226 4.1976 11.6588 4.33687 12.0094 4.33687V4.33687ZM12.0094 3.78374C11.8573 3.78374 11.7087 3.73865 11.5823 3.65418C11.4559 3.56971 11.3573 3.44965 11.2991 3.30918C11.241 3.16871 11.2257 3.01414 11.2554 2.86501C11.2851 2.71589 11.3583 2.57891 11.4658 2.4714C11.5733 2.36389 11.7103 2.29067 11.8594 2.26101C12.0085 2.23135 12.1631 2.24657 12.3036 2.30476C12.444 2.36294 12.5641 2.46148 12.6486 2.5879C12.733 2.71432 12.7781 2.86295 12.7781 3.01499C12.7781 3.21888 12.6971 3.41441 12.553 3.55858C12.4088 3.70275 12.2133 3.78374 12.0094 3.78374V3.78374ZM12.2119 13.4569C12.0271 13.4982 11.8341 13.4838 11.6576 13.4153C11.481 13.3469 11.3287 13.2276 11.22 13.0725C11.1113 12.9174 11.0511 12.7336 11.047 12.5442C11.043 12.3549 11.0952 12.1686 11.1971 12.009C11.2991 11.8494 11.4461 11.7237 11.6196 11.6477C11.7931 11.5718 11.9852 11.549 12.1716 11.5824C12.358 11.6158 12.5303 11.7038 12.6667 11.8352C12.803 11.9666 12.8973 12.1356 12.9375 12.3206C12.9911 12.5674 12.9449 12.8255 12.809 13.0384C12.673 13.2513 12.4584 13.4017 12.2119 13.4569V13.4569Z" fill="white"/>
</svg>
