<svg width="24" height="24" viewBox="0 0 24 24" fill="none" xmlns="http://www.w3.org/2000/svg">
<path d="M15.6069 4.1875H8.18498C5.45232 4.1875 3.23706 6.31415 3.23706 8.9375V15.8591C3.23706 18.4825 5.45232 20.6091 8.18498 20.6091H15.6069C18.3395 20.6091 20.5548 18.4825 20.5548 15.8591V8.9375C20.5548 6.31415 18.3395 4.1875 15.6069 4.1875Z" fill="#FB3D3D"/>
<path d="M15.76 4.1875H8.24625C5.47975 4.1875 3.23706 6.34048 3.23706 8.99632V16.0037C3.23706 18.6595 5.47975 20.8125 8.24625 20.8125H15.76C18.5265 20.8125 20.7692 18.6595 20.7692 16.0037V8.99632C20.7692 6.34048 18.5265 4.1875 15.76 4.1875Z" fill="url(#paint0_linear_201_19)"/>
<path d="M7.61748 9.23438H7.61748C6.56452 9.23438 5.71094 10.0538 5.71094 11.0647V12.4882C5.71094 13.499 6.56452 14.3185 7.61748 14.3185H7.61748C8.67043 14.3185 9.52402 13.499 9.52402 12.4882V11.0647C9.52402 10.0538 8.67043 9.23438 7.61748 9.23438Z" fill="white"/>
<path d="M7.96065 10.6701C7.96065 10.0737 7.45703 9.59021 6.83579 9.59021C6.21455 9.59021 5.71094 10.0737 5.71094 10.6701V11.51C5.71094 12.1064 6.21455 12.5898 6.83579 12.5898C7.45703 12.5898 7.96065 12.1064 7.96065 11.51V10.6701Z" fill="#404040"/>
<path d="M13.0716 9.23438H13.0716C12.0186 9.23438 11.165 10.0538 11.165 11.0647V12.4882C11.165 13.499 12.0186 14.3185 13.0716 14.3185H13.0716C14.1245 14.3185 14.9781 13.499 14.9781 12.4882V11.0647C14.9781 10.0538 14.1245 9.23438 13.0716 9.23438Z" fill="white"/>
<path d="M13.4148 10.6701C13.4148 10.0737 12.9111 9.59021 12.2899 9.59021C11.6687 9.59021 11.165 10.0737 11.165 10.6701V11.51C11.165 12.1064 11.6687 12.5898 12.2899 12.5898C12.9111 12.5898 13.4148 12.1064 13.4148 11.51V10.6701Z" fill="#404040"/>
<defs>
<linearGradient id="paint0_linear_201_19" x1="3.93406" y1="4.93382" x2="37.3562" y2="31.6268" gradientUnits="userSpaceOnUse">
<stop stop-color="#00A3FF"/>
<stop offset="1" stop-color="#FA00FF" stop-opacity="0"/>
</linearGradient>
</defs>
</svg>
