<svg width="24" height="24" viewBox="0 0 24 24" fill="none" xmlns="http://www.w3.org/2000/svg">
<path d="M7.1 9.5H7.7V15.1C7.7 15.2657 7.56569 15.4 7.4 15.4C7.23431 15.4 7.1 15.2657 7.1 15.1V9.5Z" fill="#2F80ED"/>
<path d="M7.4 18.5C8.50457 18.5 9.4 17.6046 9.4 16.5C9.4 15.3954 8.50457 14.5 7.4 14.5C6.29543 14.5 5.4 15.3954 5.4 16.5C5.4 17.6046 6.29543 18.5 7.4 18.5Z" fill="#27AE60"/>
<path d="M19.2417 12.8833H4.70833C4.20875 12.8833 3.8 13.2921 3.8 13.7917V19.2417C3.8 19.7412 4.20875 20.15 4.70833 20.15H19.2417C19.7412 20.15 20.15 19.7412 20.15 19.2417V13.7917C20.15 13.2921 19.7412 12.8833 19.2417 12.8833ZM7.43333 18.3333C6.43417 18.3333 5.61667 17.5158 5.61667 16.5167C5.61667 15.5175 6.43417 14.7 7.43333 14.7C8.4325 14.7 9.25 15.5175 9.25 16.5167C9.25 17.5158 8.4325 18.3333 7.43333 18.3333ZM19.2417 3.8H4.70833C4.20875 3.8 3.8 4.20875 3.8 4.70833V10.1583C3.8 10.6579 4.20875 11.0667 4.70833 11.0667H19.2417C19.7412 11.0667 20.15 10.6579 20.15 10.1583V4.70833C20.15 4.20875 19.7412 3.8 19.2417 3.8ZM7.43333 9.25C6.43417 9.25 5.61667 8.4325 5.61667 7.43333C5.61667 6.43417 6.43417 5.61667 7.43333 5.61667C8.4325 5.61667 9.25 6.43417 9.25 7.43333C9.25 8.4325 8.4325 9.25 7.43333 9.25Z" fill="#232323"/>
<path d="M8.37778 16.3333V16.1556H8.2V15.9778C8.2 15.88 8.12 15.8 8.02222 15.8H6.77778C6.68 15.8 6.6 15.88 6.6 15.9778V17.2222C6.6 17.32 6.68 17.4 6.77778 17.4H8.02222C8.12 17.4 8.2 17.32 8.2 17.2222V17.0444H8.37778V16.8667H8.2V16.6889H8.37778V16.5111H8.2V16.3333H8.37778ZM8.02222 17.2222H6.77778V15.9778H8.02222V17.2222ZM6.95556 16.6889H7.4V17.0444H6.95556V16.6889ZM7.48889 16.1556H7.84444V16.4222H7.48889V16.1556ZM6.95556 16.1556H7.4V16.6H6.95556V16.1556ZM7.48889 16.5111H7.84444V17.0444H7.48889V16.5111Z" fill="#232323"/>
<path d="M9.7 5.2H4.4V10.2H9.7V5.2Z" fill="#232323"/>
<path d="M12.0167 5.8C11.5616 5.80002 11.1213 5.96198 10.7747 6.2569C10.428 6.55183 10.1977 6.96047 10.1248 7.40971C10.0519 7.85895 10.1412 8.31947 10.3768 8.70888C10.6123 9.09828 10.9788 9.39116 11.4105 9.5351C11.5064 9.55187 11.5423 9.49438 11.5423 9.44406C11.5423 9.39854 11.5399 9.2476 11.5399 9.08708C11.0583 9.17573 10.9338 8.96969 10.8954 8.86188C10.8529 8.75702 10.7855 8.6641 10.699 8.59114C10.6319 8.55521 10.536 8.46656 10.6966 8.46417C10.7579 8.47082 10.8166 8.49215 10.8679 8.52635C10.9192 8.56054 10.9615 8.6066 10.9913 8.66062C11.0175 8.70771 11.0527 8.74917 11.095 8.78262C11.1372 8.81606 11.1857 8.84084 11.2376 8.85553C11.2894 8.87022 11.3437 8.87453 11.3972 8.86822C11.4507 8.86191 11.5025 8.8451 11.5495 8.81875C11.5578 8.72131 11.6012 8.6302 11.6717 8.5624C11.2452 8.51448 10.7996 8.34916 10.7996 7.61605C10.7969 7.42556 10.8672 7.24126 10.996 7.10094C10.9375 6.93538 10.9443 6.7537 11.0152 6.59303C11.0152 6.59303 11.1757 6.54271 11.5423 6.78948C11.8559 6.70323 12.187 6.70323 12.5006 6.78948C12.8672 6.54032 13.0277 6.59303 13.0277 6.59303C13.0986 6.75369 13.1055 6.93539 13.0469 7.10094C13.1761 7.24102 13.2465 7.42548 13.2433 7.61605C13.2433 8.35156 12.7953 8.51448 12.3689 8.5624C12.4146 8.60876 12.4498 8.66442 12.4722 8.72561C12.4945 8.78679 12.5034 8.85206 12.4982 8.91698C12.4982 9.17334 12.4958 9.37937 12.4958 9.44407C12.4958 9.49438 12.5318 9.55427 12.6276 9.53511C13.0586 9.38999 13.424 9.09643 13.6586 8.70682C13.8931 8.31722 13.9816 7.85693 13.9082 7.40813C13.8348 6.95932 13.6043 6.55121 13.2578 6.25665C12.9113 5.96208 12.4714 5.80024 12.0167 5.8Z" fill="white"/>
<path d="M15.9 16.4H8.9C8.84477 16.4 8.8 16.4448 8.8 16.5V16.8C8.8 16.8552 8.84477 16.9 8.9 16.9H15.9C15.9552 16.9 16 16.8552 16 16.8V16.5C16 16.4448 15.9552 16.4 15.9 16.4Z" fill="#27AE60"/>
<path d="M15.4 11H16V16.6C16 16.7657 15.8657 16.9 15.7 16.9C15.5343 16.9 15.4 16.7657 15.4 16.6V11Z" fill="#27AE60"/>
</svg>
