<svg width="24" height="24" viewBox="0 0 24 24" fill="none" xmlns="http://www.w3.org/2000/svg">
<path d="M22.6858 11.1564L12.8707 9.01901C12.3506 8.90574 11.5816 9.093 11.1532 9.43729L2.42631 16.4502C1.9979 16.7945 2.07226 17.1654 2.59239 17.2787L12.4075 19.4161C12.9276 19.5293 13.6966 19.3421 14.125 18.9978L22.8519 11.9849C23.2803 11.6406 23.2059 11.2697 22.6858 11.1564Z" fill="#007ACC"/>
<path d="M21.9688 9.16364L12.1537 7.0262C11.6335 6.91296 10.8646 7.10022 10.4361 7.44448L1.70928 14.4574C1.28086 14.8017 1.35521 15.1726 1.87535 15.2859L11.6905 17.4233C12.2106 17.5366 12.9795 17.3493 13.408 17.005L22.1348 9.9921C22.5632 9.64781 22.4889 9.27691 21.9688 9.16364Z" fill="#454545"/>
<path d="M21.4446 6.75713L11.6295 4.61972C11.1094 4.50645 10.3404 4.69371 9.91197 5.038L1.18511 12.0509C0.75669 12.3952 0.831044 12.7661 1.35118 12.8794L11.1663 15.0168C11.6864 15.1301 12.4554 14.9428 12.8838 14.5985L21.6106 7.58559C22.0391 7.24133 21.9647 6.8704 21.4446 6.75713Z" fill="#007ACC"/>
<path d="M18.5792 8.51095L18.7479 8.7577C18.7464 8.77664 18.7404 8.80056 18.7301 8.82945C18.7197 8.85786 18.7032 8.88862 18.6805 8.92174C18.6577 8.95489 18.6268 8.98771 18.5876 9.02025C18.5514 9.0503 18.5142 9.07125 18.4761 9.08305C18.4379 9.09459 18.3996 9.09678 18.3615 9.08964C18.3234 9.08202 18.2863 9.06496 18.2502 9.03845C18.2142 9.01147 18.1801 8.97459 18.1482 8.92782L18.1253 8.89441C18.0933 8.84764 18.0707 8.80135 18.0573 8.75551C18.044 8.70964 18.0392 8.66575 18.043 8.62377C18.0468 8.58134 18.0585 8.54195 18.0778 8.50558C18.0974 8.46902 18.1242 8.43664 18.1582 8.40847C18.2083 8.3668 18.2551 8.3417 18.2986 8.33318C18.3419 8.3244 18.3822 8.32868 18.4195 8.34601C18.4566 8.36307 18.4906 8.39024 18.5216 8.42749L18.3954 8.53227C18.3794 8.51454 18.3632 8.50169 18.3468 8.49375C18.3304 8.48531 18.3135 8.4828 18.2958 8.48624C18.278 8.48939 18.259 8.49933 18.2388 8.51613C18.2231 8.5292 18.2113 8.54483 18.2034 8.56303C18.1957 8.58102 18.1926 8.60134 18.1939 8.62393C18.1951 8.64623 18.2009 8.67075 18.2113 8.69744C18.222 8.72395 18.2377 8.75233 18.2584 8.7826L18.2818 8.81683C18.3023 8.84682 18.3225 8.87121 18.3424 8.89005C18.3626 8.90867 18.3825 8.92171 18.402 8.92917C18.4217 8.93613 18.4414 8.93748 18.4611 8.93314C18.4809 8.92835 18.5008 8.91764 18.5208 8.90108C18.5347 8.88947 18.5459 8.87828 18.5542 8.86751C18.5623 8.85645 18.5682 8.84632 18.5721 8.83709C18.576 8.82736 18.5785 8.81926 18.5796 8.81278L18.5158 8.71953L18.4245 8.7954L18.3565 8.69596L18.5792 8.51095ZM18.7286 7.94823L19.1394 8.54901L19.008 8.65816L18.5972 8.05738L18.7286 7.94823ZM18.8926 7.81202L18.969 7.92387L18.5134 8.30228L18.437 8.19044L18.8926 7.81202ZM19.5362 8.21943L19.4153 8.31985L19.3398 8.20782L19.46 8.10801C19.485 8.08727 19.5015 8.06317 19.5097 8.03566C19.5182 8.00794 19.518 7.97728 19.5091 7.94368C19.5003 7.90961 19.4827 7.87332 19.4563 7.8348L19.4386 7.80882C19.4188 7.77994 19.3989 7.75679 19.3788 7.73941C19.3588 7.72155 19.3388 7.70949 19.3188 7.70319C19.2987 7.69663 19.2786 7.69584 19.2585 7.70087C19.2387 7.70565 19.2192 7.71605 19.2 7.732L19.0787 7.83276L19.0023 7.72094L19.1236 7.62018C19.1605 7.5895 19.1991 7.56844 19.2394 7.55696C19.2798 7.54503 19.32 7.54265 19.3602 7.54984C19.4004 7.55656 19.4386 7.57246 19.4749 7.59751C19.5113 7.62209 19.544 7.65568 19.5732 7.69833L19.5904 7.72348C19.6193 7.76586 19.6396 7.80983 19.6512 7.85541C19.6631 7.90077 19.6665 7.94556 19.6615 7.98982C19.6566 8.03405 19.6435 8.07592 19.6224 8.11547C19.6014 8.15449 19.5726 8.18917 19.5362 8.21943ZM19.0798 7.65656L19.4905 8.25736L19.3591 8.36648L18.9484 7.7657L19.0798 7.65656ZM19.5762 7.24425L19.9869 7.84506L19.8555 7.95418L19.4448 7.3534L19.5762 7.24425ZM19.959 7.31832L20.0352 7.42975L19.7859 7.63682L19.7097 7.5254L19.959 7.31832ZM19.8094 7.05054L19.8858 7.16238L19.6152 7.38718L19.5387 7.27536L19.8094 7.05054Z" fill="white"/>
</svg>
