<svg width="24" height="24" viewBox="0 0 24 24" fill="none" xmlns="http://www.w3.org/2000/svg">
<path d="M12.5014 18.9999C12.4294 18.9999 12.3623 18.9807 12.2998 18.9471L11.6616 18.568C11.5656 18.5152 11.6136 18.496 11.6424 18.4864C11.772 18.4433 11.796 18.4336 11.9304 18.3569C11.9448 18.3473 11.964 18.3521 11.9784 18.3617L12.4678 18.6544C12.487 18.664 12.511 18.664 12.5254 18.6544L14.4401 17.5459C14.4593 17.5363 14.469 17.517 14.469 17.4931V15.2808C14.469 15.2568 14.4593 15.2376 14.4401 15.228L12.5254 14.1243C12.5062 14.1147 12.4822 14.1147 12.4678 14.1243L10.5531 15.228C10.5339 15.2376 10.5243 15.2616 10.5243 15.2808V17.493C10.5243 17.5123 10.5339 17.5362 10.5531 17.5459L11.0762 17.8482C11.3593 17.9921 11.5369 17.8242 11.5369 17.6562V15.4727C11.5369 15.444 11.5609 15.4151 11.5944 15.4151H11.8392C11.868 15.4151 11.8968 15.4391 11.8968 15.4727V17.6562C11.8968 18.0353 11.6904 18.2561 11.3305 18.2561C11.2201 18.2561 11.1338 18.2561 10.889 18.1361L10.3851 17.8482C10.2604 17.7762 10.1836 17.6418 10.1836 17.4979V15.2856C10.1836 15.1416 10.2604 15.0072 10.3851 14.9353L12.2998 13.8268C12.4198 13.7596 12.583 13.7596 12.703 13.8268L14.6177 14.9353C14.7425 15.0072 14.8193 15.1416 14.8193 15.2856V17.4979C14.8193 17.6418 14.7425 17.7762 14.6177 17.8482L12.703 18.9567C12.6406 18.9855 12.5686 18.9999 12.5014 18.9999H12.5014ZM13.0917 17.4787C12.2519 17.4787 12.0791 17.0948 12.0791 16.7685C12.0791 16.7396 12.1031 16.7109 12.1367 16.7109H12.3863C12.415 16.7109 12.439 16.73 12.439 16.7589C12.4774 17.0132 12.5878 17.1379 13.0965 17.1379C13.4996 17.1379 13.6724 17.0468 13.6724 16.8308C13.6724 16.706 13.6243 16.6149 12.9957 16.5525C12.4726 16.4997 12.1463 16.3845 12.1463 15.967C12.1463 15.5783 12.4727 15.348 13.0197 15.348C13.6339 15.348 13.9363 15.5591 13.9747 16.0198C13.9747 16.0342 13.9699 16.0486 13.9603 16.063C13.9507 16.0726 13.9363 16.0822 13.9219 16.0822H13.6723C13.6483 16.0822 13.6243 16.063 13.6196 16.039C13.562 15.7751 13.4132 15.6887 13.0197 15.6887C12.5782 15.6887 12.5254 15.8423 12.5254 15.9574C12.5254 16.0966 12.5878 16.1398 13.1828 16.2166C13.7731 16.2934 14.0515 16.4037 14.0515 16.8164C14.0466 17.2387 13.7011 17.4787 13.0917 17.4787Z" fill="#CCCCCC"/>
<path d="M6.55891 10.3478C6.55891 10.2614 6.51091 10.1798 6.43413 10.1366L4.39943 8.96572C4.3658 8.94649 4.32743 8.9369 4.28906 8.93208H4.26984C4.23147 8.93208 4.19307 8.94649 4.15948 8.96572L2.12477 10.1366C2.04796 10.1798 2 10.2614 2 10.3478L2.00482 13.4958C2.00482 13.539 2.02882 13.5822 2.06718 13.6014C2.10559 13.6254 2.15355 13.6254 2.18718 13.6014L3.39648 12.9104C3.47326 12.8672 3.52125 12.7856 3.52125 12.6992V11.226C3.52125 11.1396 3.56921 11.058 3.64603 11.0148L4.15948 10.7173C4.19788 10.6933 4.24107 10.6837 4.28425 10.6837C4.32743 10.6837 4.37061 10.6933 4.40424 10.7173L4.9177 11.0148C4.99451 11.058 5.04247 11.1396 5.04247 11.226V12.6992C5.04247 12.7856 5.09047 12.8672 5.16724 12.9104L6.37654 13.6014C6.41495 13.6254 6.46291 13.6254 6.50132 13.6014C6.53972 13.5822 6.56372 13.539 6.56372 13.4958L6.55891 10.3478ZM16.3389 6.01442C16.3006 5.99519 16.2526 5.99519 16.2189 6.01442C16.1806 6.03842 16.1566 6.07678 16.1566 6.11997V9.23926C16.1566 9.26803 16.1422 9.29681 16.1134 9.31603C16.0846 9.3304 16.0558 9.3304 16.027 9.31603L15.5184 9.02331C15.4811 9.00207 15.4389 8.99091 15.396 8.99091C15.3531 8.99091 15.3109 9.00207 15.2736 9.02331L13.2389 10.199C13.1621 10.2422 13.1141 10.3238 13.1141 10.4102V12.7568C13.1141 12.8431 13.1621 12.9248 13.2389 12.968L15.2736 14.1437C15.3109 14.1649 15.3531 14.1761 15.396 14.1761C15.4389 14.1761 15.4811 14.1649 15.5184 14.1437L17.5531 12.968C17.6298 12.9248 17.6778 12.8432 17.6778 12.7568V6.907C17.6778 6.81582 17.6298 6.73427 17.5531 6.69105L16.339 6.01442H16.3389ZM16.1518 11.9842C16.1518 12.0082 16.1422 12.0274 16.123 12.037L15.4272 12.4401C15.4175 12.4448 15.4068 12.4473 15.396 12.4473C15.3852 12.4473 15.3745 12.4448 15.3648 12.4401L14.669 12.037C14.6497 12.0274 14.6401 12.0034 14.6401 11.9842V11.178C14.6401 11.154 14.6497 11.1348 14.669 11.1252L15.3648 10.7221C15.3745 10.7173 15.3852 10.7149 15.396 10.7149C15.4068 10.7149 15.4175 10.7173 15.4272 10.7221L16.123 11.1252C16.1422 11.1348 16.1518 11.1588 16.1518 11.178V11.9842ZM23.1101 11.1588C23.1869 11.1156 23.2301 11.034 23.2301 10.9476V10.3766C23.2301 10.2902 23.1821 10.2086 23.1101 10.1654L21.0898 8.99453C21.0525 8.97331 21.0103 8.96214 20.9674 8.96214C20.9245 8.96214 20.8824 8.97331 20.8451 8.99453L18.8104 10.1702C18.7335 10.2134 18.6856 10.295 18.6856 10.3814V12.728C18.6856 12.8144 18.7335 12.896 18.8104 12.9391L20.8307 14.0909C20.9075 14.134 20.9986 14.134 21.0706 14.0909L22.2943 13.4095C22.3327 13.3903 22.3567 13.3471 22.3567 13.3039C22.3567 13.2607 22.3327 13.2175 22.2943 13.1983L20.25 12.0226C20.2116 11.9986 20.1876 11.9602 20.1876 11.9171V11.1828C20.1876 11.1397 20.2116 11.0965 20.25 11.0772L20.8883 10.7125C20.9069 10.7008 20.9286 10.6945 20.9506 10.6945C20.9727 10.6945 20.9943 10.7008 21.013 10.7125L21.6512 11.0772C21.6897 11.1012 21.7137 11.1396 21.7137 11.1828V11.7587C21.7137 11.8019 21.7377 11.8451 21.776 11.8642C21.8144 11.8882 21.8624 11.8882 21.9008 11.8642L23.1101 11.1588V11.1588Z" fill="white"/>
<path d="M20.9362 11.0484C20.9433 11.0438 20.9516 11.0413 20.9602 11.0413C20.9687 11.0413 20.977 11.0438 20.9842 11.0484L21.3729 11.274C21.3873 11.2835 21.3969 11.2979 21.3969 11.3172V11.7682C21.3969 11.7874 21.3873 11.8018 21.3729 11.8114L20.9842 12.0369C20.977 12.0416 20.9687 12.0441 20.9602 12.0441C20.9516 12.0441 20.9433 12.0416 20.9362 12.0369L20.5474 11.8114C20.533 11.8018 20.5234 11.7874 20.5234 11.7682V11.3172C20.5234 11.2979 20.533 11.2835 20.5474 11.274L20.9362 11.0484V11.0484Z" fill="#CCCCCC"/>
<mask id="mask0_1086_310" style="mask-type:alpha" maskUnits="userSpaceOnUse" x="7" y="8" width="6" height="7">
<path d="M9.95924 9.00358C9.92195 8.98235 9.87978 8.97119 9.83688 8.97119C9.79397 8.97119 9.7518 8.98235 9.71451 9.00358L7.69422 10.1696C7.6174 10.2128 7.57422 10.2944 7.57422 10.3808V12.7178C7.57422 12.8042 7.62222 12.8858 7.69422 12.929L9.71451 14.0951C9.7518 14.1163 9.79397 14.1275 9.83688 14.1275C9.87978 14.1275 9.92195 14.1163 9.95924 14.0951L11.9796 12.929C12.0564 12.8858 12.0996 12.8042 12.0996 12.7178V10.3808C12.0996 10.2944 12.0515 10.2128 11.9796 10.1697L9.95924 9.00358Z" fill="white"/>
</mask>
<g mask="url(#mask0_1086_310)">
<path d="M9.95924 9.00358C9.92195 8.98235 9.87978 8.97119 9.83688 8.97119C9.79397 8.97119 9.7518 8.98235 9.71451 9.00358L7.69422 10.1696C7.6174 10.2128 7.57422 10.2944 7.57422 10.3808V12.7178C7.57422 12.8042 7.62222 12.8858 7.69422 12.929L9.71451 14.0951C9.7518 14.1163 9.79397 14.1275 9.83688 14.1275C9.87978 14.1275 9.92195 14.1163 9.95924 14.0951L11.9796 12.929C12.0564 12.8858 12.0996 12.8042 12.0996 12.7178V10.3808C12.0996 10.2944 12.0515 10.2128 11.9796 10.1697L9.95924 9.00358Z" fill="white"/>
<path d="M11.987 10.1698L9.95715 9.00374C9.93721 8.99366 9.9163 8.98562 9.89475 8.97974L7.62012 12.8764C7.63896 12.8994 7.66172 12.9189 7.68734 12.934L9.71721 14.1002C9.7748 14.1338 9.84198 14.1433 9.90434 14.1241L12.0398 10.2179C12.0254 10.1987 12.0062 10.1842 11.987 10.1699V10.1698Z" fill="white"/>
<path fill-rule="evenodd" clip-rule="evenodd" d="M11.9923 12.9296C12.0499 12.896 12.093 12.8384 12.1123 12.776L9.88552 8.97531C9.82793 8.96572 9.76552 8.9705 9.71279 9.00409L7.69727 10.1654L9.87111 14.1293C9.90273 14.1241 9.93343 14.1144 9.96229 14.1005L11.9922 12.9296L11.9923 12.9296Z" fill="white"/>
<path fill-rule="evenodd" clip-rule="evenodd" d="M11.9922 12.9301L9.96715 14.0962C9.93857 14.1107 9.90775 14.1205 9.87598 14.1249L9.91438 14.1969L12.1601 12.8965V12.8677L12.1026 12.7717C12.093 12.8389 12.0498 12.8965 11.9922 12.9301V12.9301Z" fill="white"/>
<path fill-rule="evenodd" clip-rule="evenodd" d="M11.9922 12.9301L9.96715 14.0962C9.93857 14.1107 9.90775 14.1205 9.87598 14.1249L9.91438 14.1969L12.1601 12.8965V12.8677L12.1026 12.7717C12.093 12.8389 12.0498 12.8965 11.9922 12.9301V12.9301Z" fill="#F4F4F4"/>
</g>
</svg>
