<svg width="24" height="24" viewBox="0 0 24 24" fill="none" xmlns="http://www.w3.org/2000/svg">
<g clip-path="url(#clip0_1086_319)">
<path d="M11.8973 0.00671387C5.8199 0.00671387 6.19937 2.64224 6.19937 2.64224L6.20612 5.37272H12.0057V6.19248H3.90262C3.90262 6.19248 0.0136719 5.75143 0.0136719 11.8835C0.0136719 18.0157 3.40804 17.7983 3.40804 17.7983H5.43378V14.9527C5.43378 14.9527 5.32457 11.5583 8.77397 11.5583H14.5261C14.5261 11.5583 17.7578 11.6105 17.7578 8.43495V3.18434C17.7578 3.18434 18.2487 0.00671387 11.8973 0.00671387ZM8.69944 1.84291C8.83649 1.84279 8.97222 1.86969 9.09886 1.92208C9.2255 1.97447 9.34056 2.05131 9.43747 2.14822C9.53438 2.24513 9.61122 2.36019 9.66361 2.48683C9.716 2.61347 9.7429 2.7492 9.74278 2.88624C9.7429 3.02329 9.716 3.15902 9.66361 3.28566C9.61122 3.4123 9.53438 3.52736 9.43747 3.62427C9.34056 3.72118 9.2255 3.79802 9.09886 3.85041C8.97222 3.9028 8.83649 3.9297 8.69944 3.92958C8.56239 3.9297 8.42667 3.9028 8.30003 3.85041C8.17339 3.79802 8.05832 3.72118 7.96142 3.62427C7.86451 3.52736 7.78766 3.4123 7.73527 3.28566C7.68288 3.15902 7.65598 3.02329 7.6561 2.88624C7.65598 2.7492 7.68288 2.61347 7.73527 2.48683C7.78766 2.36019 7.86451 2.24513 7.96142 2.14822C8.05832 2.05131 8.17339 1.97447 8.30003 1.92208C8.42667 1.86969 8.56239 1.84279 8.69944 1.84291V1.84291Z" fill="#D7D7D7"/>
<path d="M12.0696 23.8222C18.147 23.8222 17.7676 21.1866 17.7676 21.1866L17.7608 18.4562H11.9611V17.6364H20.0642C20.0642 17.6364 23.9532 18.0775 23.9532 11.9452C23.9532 5.81301 20.5588 6.0305 20.5588 6.0305H18.533V8.87602C18.533 8.87602 18.6423 12.2704 15.1929 12.2704H9.44071C9.44071 12.2704 6.20899 12.2182 6.20899 15.3939V20.6446C6.20899 20.6446 5.71825 23.8222 12.0695 23.8222H12.0696ZM15.2675 21.9861C15.1304 21.9863 14.9947 21.9594 14.8681 21.907C14.7414 21.8546 14.6264 21.7777 14.5295 21.6808C14.4325 21.5839 14.3557 21.4689 14.3033 21.3422C14.2509 21.2156 14.224 21.0798 14.2241 20.9428C14.224 20.8057 14.2509 20.67 14.3033 20.5434C14.3557 20.4167 14.4325 20.3016 14.5294 20.2047C14.6263 20.1078 14.7414 20.0309 14.868 19.9785C14.9947 19.9261 15.1304 19.8992 15.2675 19.8994C15.4045 19.8992 15.5403 19.9261 15.6669 19.9785C15.7935 20.0309 15.9086 20.1078 16.0055 20.2047C16.1024 20.3016 16.1793 20.4166 16.2316 20.5433C16.284 20.6699 16.3109 20.8057 16.3108 20.9427C16.3109 21.0798 16.284 21.2155 16.2316 21.3421C16.1793 21.4688 16.1024 21.5838 16.0055 21.6807C15.9086 21.7776 15.7935 21.8545 15.6669 21.9069C15.5403 21.9593 15.4045 21.9862 15.2675 21.986V21.9861Z" fill="white"/>
</g>
<defs>
<clipPath id="clip0_1086_319">
<rect width="24" height="23.904" fill="white"/>
</clipPath>
</defs>
</svg>
