<svg width="24" height="24" viewBox="0 0 24 24" fill="none" xmlns="http://www.w3.org/2000/svg">
<path d="M17.4867 1.97632H3.68218C2.75693 1.97632 2 2.73334 2 3.65849V18.8822C2 19.8073 2.75693 20.5643 3.68218 20.5643H12.7741C12.6709 16.0404 14.2158 7.26098 17.4867 1.97632V1.97632Z" fill="white"/>
<path d="M16.9876 2.46655H3.68471C3.02773 2.46655 2.49316 3.00103 2.49316 3.65811V17.7711C5.50596 16.6148 10.0278 15.6171 13.1544 15.6624C13.7827 12.3771 15.6293 5.93871 16.9876 2.46655V2.46655Z" fill="#F4F4F4"/>
<path d="M20.705 1.47788C19.7596 0.634833 18.6148 0.973426 17.4852 1.97616C17.3174 2.12505 17.1501 2.29033 16.9836 2.46688C15.051 4.51717 13.257 8.31477 12.6997 11.2152C12.9168 11.6555 13.0864 12.2173 13.1981 12.6465C13.2267 12.7566 13.2525 12.86 13.2732 12.9479C13.3222 13.156 13.3486 13.2909 13.3486 13.2909C13.3486 13.2909 13.3313 13.2253 13.2601 13.0192C13.2466 12.9796 13.2315 12.9365 13.2136 12.8857C13.2043 12.8608 13.1944 12.8362 13.1838 12.8119C13.0578 12.5188 12.7091 11.9003 12.5556 11.631C12.4339 11.9878 12.3191 12.347 12.2112 12.7082C12.6543 13.5189 12.9243 14.9082 12.9243 14.9082C12.9243 14.9082 12.9009 14.8182 12.7895 14.5039C12.6907 14.226 12.1984 13.3633 12.0817 13.1617C11.8822 13.8982 11.803 14.3954 11.8745 14.5164C12.0133 14.751 12.1454 15.1558 12.2615 15.6033C12.5237 16.6117 12.7059 17.8393 12.7059 17.8393C12.7059 17.8393 12.7117 17.9207 12.7217 18.0459C12.6853 18.8927 12.7071 19.7706 12.7728 20.5641C12.8596 21.6146 13.0231 22.517 13.2315 23L13.373 22.9229C13.067 21.9714 12.9426 20.7244 12.9971 19.2863C13.0795 17.0882 13.5853 14.4372 14.5199 11.6742C16.0991 7.5033 18.2899 4.15681 20.2951 2.55859C18.4675 4.20918 15.994 9.55183 15.2535 11.5302C14.4244 13.7458 13.8369 15.8248 13.4828 17.8167C14.0938 15.9493 16.0691 15.1467 16.0691 15.1467C16.0691 15.1467 17.0379 13.9518 18.1701 12.2447C17.4919 12.3994 16.3783 12.6642 16.0052 12.8209C15.455 13.0517 15.3068 13.1305 15.3068 13.1305C15.3068 13.1305 17.089 12.0451 18.6181 11.5537C20.7211 8.2415 23.0122 3.53612 20.705 1.47788" fill="#CDCDCD"/>
</svg>
