<svg width="24" height="24" viewBox="0 0 24 24" fill="none" xmlns="http://www.w3.org/2000/svg">
<g clip-path="url(#clip0_1086_354)">
<path d="M15.225 11.9737L19.4137 4.74089L21.4377 11.9737L19.4136 19.2048L15.225 11.9737ZM13.1835 13.1483L17.3727 20.3799L10.0768 18.5109L4.80603 13.1483H13.1835ZM17.3718 3.56539L13.1835 10.7982H4.80603L10.0768 5.43529L17.3718 3.56539V3.56539ZM23.3514 9.51223L20.796 0.00549316L11.2581 2.55329L9.84617 5.03558L6.98122 5.01505L0 11.9744L6.98122 18.932H6.98149L9.84526 18.9108L11.2592 21.3931L20.796 23.9405L23.3513 14.4356L21.9001 11.9738L23.3513 9.51241L23.3514 9.51223Z" fill="white"/>
</g>
<defs>
<clipPath id="clip0_1086_354">
<rect width="23.3568" height="24" fill="white"/>
</clipPath>
</defs>
</svg>
