<svg width="35" height="35" viewBox="0 0 35 35" fill="none" xmlns="http://www.w3.org/2000/svg">
<path d="M29.8959 16.0417H27.7084V10.2083C27.7084 8.60417 26.3959 7.29167 24.7917 7.29167H18.9584V5.10417C18.9584 3.09167 17.3251 1.45834 15.3126 1.45834C13.3001 1.45834 11.6667 3.09167 11.6667 5.10417V7.29167H5.83341C4.22925 7.29167 2.93133 8.60417 2.93133 10.2083V15.75H5.10425C7.27716 15.75 9.04175 17.5146 9.04175 19.6875C9.04175 21.8604 7.27716 23.625 5.10425 23.625H2.91675V29.1667C2.91675 30.7708 4.22925 32.0833 5.83341 32.0833H11.3751V29.8958C11.3751 27.7229 13.1397 25.9583 15.3126 25.9583C17.4855 25.9583 19.2501 27.7229 19.2501 29.8958V32.0833H24.7917C26.3959 32.0833 27.7084 30.7708 27.7084 29.1667V23.3333H29.8959C31.9084 23.3333 33.5417 21.7 33.5417 19.6875C33.5417 17.675 31.9084 16.0417 29.8959 16.0417Z" fill="black"/>
</svg>
