<svg width="27" height="27" viewBox="0 0 27 27" fill="none" xmlns="http://www.w3.org/2000/svg">
<path d="M13.0992 3.92065C7.67362 3.92065 3.2742 8.3372 3.2742 13.7839C3.2742 19.2306 7.67362 23.6472 13.0992 23.6472C14.0053 23.6472 14.7367 22.9129 14.7367 22.0033C14.7367 21.5759 14.5729 21.1923 14.3109 20.8964C14.0599 20.6115 13.8961 20.2279 13.8961 19.8115C13.8961 18.9018 14.6275 18.1676 15.5336 18.1676H17.4659C20.4789 18.1676 22.9242 15.7127 22.9242 12.688C22.9242 7.84404 18.5248 3.92065 13.0992 3.92065ZM7.09503 13.7839C6.18895 13.7839 5.45753 13.0496 5.45753 12.14C5.45753 11.2304 6.18895 10.4962 7.09503 10.4962C8.00112 10.4962 8.73253 11.2304 8.73253 12.14C8.73253 13.0496 8.00112 13.7839 7.09503 13.7839ZM10.37 9.40024C9.46395 9.40024 8.73253 8.66598 8.73253 7.75636C8.73253 6.84675 9.46395 6.11249 10.37 6.11249C11.2761 6.11249 12.0075 6.84675 12.0075 7.75636C12.0075 8.66598 11.2761 9.40024 10.37 9.40024ZM15.8284 9.40024C14.9223 9.40024 14.1909 8.66598 14.1909 7.75636C14.1909 6.84675 14.9223 6.11249 15.8284 6.11249C16.7344 6.11249 17.4659 6.84675 17.4659 7.75636C17.4659 8.66598 16.7344 9.40024 15.8284 9.40024ZM19.1034 13.7839C18.1973 13.7839 17.4659 13.0496 17.4659 12.14C17.4659 11.2304 18.1973 10.4962 19.1034 10.4962C20.0094 10.4962 20.7409 11.2304 20.7409 12.14C20.7409 13.0496 20.0094 13.7839 19.1034 13.7839Z" fill="white"/>
</svg>
