<svg width="21" height="22" viewBox="0 0 21 22" fill="none" xmlns="http://www.w3.org/2000/svg">
<g clip-path="url(#clip0)">
<path d="M13.1279 13.3594L14.5979 10.8034C14.6924 10.6449 14.6504 10.4443 14.5139 10.3281L12.9599 9.10287C12.9914 8.8705 13.0124 8.62757 13.0124 8.38464C13.0124 8.14172 12.9914 7.89879 12.9599 7.65586L14.5139 6.43065C14.6504 6.31447 14.6924 6.11379 14.5979 5.95535L13.1279 3.39932C13.0334 3.24088 12.8444 3.17751 12.6764 3.24088L10.8494 3.98023C10.4714 3.68449 10.0619 3.44157 9.61045 3.25145L9.33745 1.29745C9.30595 1.12846 9.14845 0.99115 8.96995 0.99115H6.02998C5.85148 0.99115 5.69399 1.12846 5.66249 1.30801L5.38949 3.26201C4.94849 3.45213 4.5285 3.69506 4.1505 3.9908L2.32352 3.25145C2.15552 3.18807 1.96652 3.25145 1.87202 3.40988L0.402039 5.96592C0.30754 6.12435 0.34954 6.32503 0.486038 6.44121L2.04002 7.66642C2.00852 7.89879 1.98752 8.14172 1.98752 8.38464C1.98752 8.62757 2.00852 8.8705 2.04002 9.11343L0.486038 10.3386C0.34954 10.4548 0.30754 10.6555 0.402039 10.8139L1.87202 13.37C1.96652 13.5284 2.15552 13.5918 2.32352 13.5284L4.1505 12.7891C4.5285 13.0848 4.93799 13.3277 5.38949 13.5178L5.66249 15.4718C5.69399 15.6408 5.85148 15.7781 6.02998 15.7781H8.96995C9.14845 15.7781 9.30595 15.6408 9.33745 15.4613L9.61045 13.5073C10.0514 13.3172 10.4714 13.0742 10.8494 12.7785L12.6764 13.5178C12.8444 13.5812 13.0334 13.5178 13.1279 13.3594ZM7.49997 10.4971C6.34498 10.4971 5.39999 9.54648 5.39999 8.38464C5.39999 7.22281 6.34498 6.27222 7.49997 6.27222C8.65496 6.27222 9.59995 7.22281 9.59995 8.38464C9.59995 9.54648 8.65496 10.4971 7.49997 10.4971Z" fill="#CBCBCB"/>
<path d="M21.2653 18.5982L20.2573 17.8166C20.2783 17.6688 20.2993 17.5103 20.2993 17.3519C20.2993 17.1935 20.2888 17.035 20.2573 16.8872L21.2548 16.1056C21.3388 16.0316 21.3703 15.9049 21.3073 15.7993L20.3623 14.1621C20.3098 14.0565 20.1838 14.0248 20.0683 14.0565L18.9028 14.5318C18.6613 14.3417 18.3988 14.1833 18.1048 14.0671L17.9263 12.8207C17.9158 12.694 17.8108 12.6095 17.7058 12.6095H15.8263C15.7108 12.6095 15.6058 12.694 15.5953 12.8102L15.4168 14.0565C15.1333 14.1833 14.8603 14.3311 14.6188 14.5212L13.4533 14.0459C13.3483 14.0037 13.2223 14.0459 13.1593 14.1516L12.2144 15.7887C12.1619 15.8943 12.1724 16.0211 12.2669 16.095L13.2643 16.8766C13.2433 17.0245 13.2328 17.1829 13.2328 17.3413C13.2328 17.4998 13.2433 17.6582 13.2643 17.8061L12.2669 18.5877C12.1829 18.6616 12.1514 18.7883 12.2144 18.894L13.1593 20.5311C13.2118 20.6367 13.3378 20.6684 13.4533 20.6367L14.6188 20.1614C14.8603 20.3515 15.1228 20.51 15.4168 20.6262L15.5953 21.8725C15.6163 21.9887 15.7108 22.0732 15.8263 22.0732H17.7058C17.8213 22.0732 17.9263 21.9887 17.9368 21.8725L18.1153 20.6262C18.3988 20.4994 18.6718 20.3515 18.9028 20.1614L20.0788 20.6367C20.1838 20.679 20.3098 20.6367 20.3728 20.5311L21.3178 18.894C21.3808 18.7989 21.3493 18.6722 21.2653 18.5982ZM16.7608 18.7672C15.9838 18.7672 15.3433 18.1335 15.3433 17.3413C15.3433 16.5492 15.9733 15.9154 16.7608 15.9154C17.5483 15.9154 18.1783 16.5492 18.1783 17.3413C18.1783 18.1335 17.5378 18.7672 16.7608 18.7672Z" fill="#CBCBCB"/>
</g>
<defs>
<clipPath id="clip0">
<rect width="21" height="21.082" fill="white" transform="translate(0 0.636719)"/>
</clipPath>
</defs>
</svg>
