<svg width="51" height="51" viewBox="0 0 51 51" fill="none" xmlns="http://www.w3.org/2000/svg">
<rect width="51" height="51" fill="#2F80ED"/>
<path d="M17.3568 27.2356L25.6817 18.9107L23.7715 17.0005L13.9089 26.863L20.4388 33.3929L21.9765 31.8553L17.3568 27.2356Z" fill="white"/>
<path d="M30.0844 18.9642C30.0844 19.512 30.2656 19.9709 30.6279 20.3409C30.9902 20.7108 31.4815 20.8958 32.1016 20.8958C32.7148 20.8958 33.2026 20.7144 33.5649 20.3515C33.9343 19.9816 34.1189 19.5191 34.1189 18.9642C34.1189 18.4092 33.9377 17.9432 33.5754 17.5661C33.22 17.189 32.7288 17.0005 32.1016 17.0005C31.4676 17.0005 30.9728 17.1926 30.6174 17.5768C30.2621 17.9539 30.0844 18.4163 30.0844 18.9642ZM33.335 29.2628L33.3455 26.9043H30.6174V29.4015C30.6174 30.1842 30.5269 30.853 30.3457 31.4079C30.1645 31.97 29.9415 32.5071 29.6768 33.0194L31.2132 33.8305C31.8403 33.2613 32.349 32.5605 32.7392 31.7281C33.1364 30.8956 33.335 30.0739 33.335 29.2628Z" fill="white"/>
</svg>
