<svg width="36" height="36" viewBox="0 0 36 36" fill="none" xmlns="http://www.w3.org/2000/svg">
<path d="M30 7.49999H6C4.35 7.49999 3.015 8.84999 3.015 10.5L3 25.5C3 27.15 4.35 28.5 6 28.5H30C31.65 28.5 33 27.15 33 25.5V10.5C33 8.84999 31.65 7.49999 30 7.49999ZM16.5 12H19.5V15H16.5V12ZM16.5 16.5H19.5V19.5H16.5V16.5ZM12 12H15V15H12V12ZM12 16.5H15V19.5H12V16.5ZM10.5 19.5H7.5V16.5H10.5V19.5ZM10.5 15H7.5V12H10.5V15ZM24 25.5H12V22.5H24V25.5ZM24 19.5H21V16.5H24V19.5ZM24 15H21V12H24V15ZM28.5 19.5H25.5V16.5H28.5V19.5ZM28.5 15H25.5V12H28.5V15Z" fill="black"/>
</svg>
