<svg width="34" height="34" viewBox="0 0 34 34" fill="none" xmlns="http://www.w3.org/2000/svg">
<path d="M12.75 15.9233V10.625C12.75 8.67 14.3366 7.08333 16.2916 7.08333C18.2466 7.08333 19.8333 8.67 19.8333 10.625V15.9233C21.5475 14.7758 22.6666 12.835 22.6666 10.625C22.6666 7.0975 19.8191 4.25 16.2916 4.25C12.7641 4.25 9.91663 7.0975 9.91663 10.625C9.91663 12.835 11.0358 14.7758 12.75 15.9233ZM26.69 22.4825L20.2583 19.2808C20.0175 19.1817 19.7625 19.125 19.4933 19.125H18.4166V10.625C18.4166 9.44917 17.4675 8.5 16.2916 8.5C15.1158 8.5 14.1666 9.44917 14.1666 10.625V25.84C9.06663 24.7633 9.15163 24.7775 8.96746 24.7775C8.52829 24.7775 8.13163 24.9617 7.84829 25.245L6.72913 26.3783L13.7275 33.3767C14.11 33.7592 14.6483 34 15.2291 34H24.8483C25.9108 34 26.7325 33.2208 26.8883 32.1867L27.9508 24.7208C27.965 24.6217 27.9791 24.5225 27.9791 24.4375C27.9791 23.5592 27.4408 22.7942 26.69 22.4825Z" fill="black"/>
</svg>
